<?xml version="1.0" encoding="utf-8"?>
<!DOCTYPE svg PUBLIC "-//W3C//DTD SVG 1.0//EN" "http://www.w3.org/TR/2001/REC-SVG-20010904/DTD/svg10.dtd">
<svg version="1.0" xmlns="http://www.w3.org/2000/svg" width="1361px" height="793px" viewBox="0 0 1361 793" preserveAspectRatio="xMidYMid meet">
 <g fill="#ffffff">
  <path d="M0 396.5 l0 -396.5 680.5 0 680.5 0 0 396.5 0 396.5 -680.5 0 -680.5 0 0 -396.5z m418.6 369.4 c-0.3 -1.7 -0.6 -11.6 -0.6 -22 0 -10.4 -0.4 -18.9 -0.8 -18.9 -0.4 0 -0.8 9.9 -0.7 22 0 18 0.3 22 1.4 22 1 0 1.2 -0.8 0.7 -3.1z m328.4 -18.4 l-0.6 -10 -1.3 4.4 c-1.3 4.5 -0.9 9.2 1.1 13.7 0.6 1.3 1.2 2.3 1.3 2.2 0.1 -0.2 -0.1 -4.8 -0.5 -10.3z m-72 -42.6 c64.2 -5.5 122.4 -29.4 171 -70.3 17.3 -14.5 40.4 -39.3 53.3 -57.2 l3.7 -5.2 -3.6 -7.2 c-13.8 -28 -20.4 -59.3 -20.4 -97 0 -55.7 15.9 -103.5 48.1 -144.2 l6.9 -8.8 -3.1 -7.7 c-8.8 -22.4 -28 -53.6 -45.7 -74.3 -54.1 -63.1 -122.7 -100.3 -202.2 -109.4 -68.1 -7.9 -135.7 4.5 -191.3 35 -30 16.4 -58.1 38.7 -81.1 64.2 -17.5 19.4 -33.5 40.9 -32.1 43.2 1 1.7 8.6 119.8 8.3 129.7 -0.4 11.6 -1.3 12.8 -9.9 12.8 -5.7 0 -6.3 -0.2 -9 -3.4 -1.5 -1.9 -5.4 -9.1 -8.5 -16 -5.8 -13 -17.2 -34.1 -18.4 -34.1 -0.8 0 -3.4 14.6 -5.2 29 -1.8 14.2 -1.5 49.9 0.6 65.5 6 45.1 19.6 82 43.8 118.7 6.1 9.2 7.5 10.7 10.4 11.3 4.3 0.8 7.4 4.7 7.4 9.5 0 3.2 1.1 4.9 8.8 13.6 38.7 43.5 87.4 74.8 140.7 90.4 40.9 11.9 82.3 15.8 127.5 11.9z m-429 -5.8 c40.2 -7 77.2 -26.1 105.1 -54.2 13.2 -13.3 33.4 -41.3 36.7 -50.8 0.8 -2.3 0.7 -3.2 -0.3 -4.1 -1.5 -1.2 -4.5 2.9 -12.5 17.1 -5.9 10.5 -18.4 26 -29.7 37 -23.4 22.6 -43.3 34.4 -70.1 41.7 -9.2 2.5 -10.8 2.6 -33.7 2.6 -23.6 0 -24.2 -0.1 -35.5 -3.1 -26.9 -7.2 -48.4 -19.9 -71.4 -42.2 -34.7 -33.8 -53.6 -71.6 -61.8 -123.6 -1.9 -12.3 -2.2 -17.9 -2.2 -46 0 -28.3 0.2 -33.7 2.2 -46.4 13 -82.9 53.3 -139.9 110.6 -156.6 14 -4 21.4 -4.8 41.1 -4.2 20.3 0.5 29.7 2.4 45.8 9.2 40 16.9 77.9 58.7 99.1 109.1 3.6 8.7 6.7 13.7 7.8 12.6 1.2 -1.2 -6.8 -123.3 -8.4 -126.7 -1.5 -3.4 -2.8 -2.8 -5.7 2.6 -1.3 2.4 -6.8 8.8 -12.3 14.2 -8.9 8.8 -10.1 9.7 -13.6 9.7 -2 0 -5.3 -1 -7.2 -2.1 -8.1 -5 -30.4 -15.5 -42 -19.9 -25.9 -9.8 -48.9 -14.3 -73 -14.3 -24.2 0 -46.5 4.4 -70.3 13.6 -51.6 20.2 -89.7 54.6 -113.1 102.1 -11 22.4 -18.2 45.2 -22.3 70.6 -2.6 16.4 -2.6 58.8 0 74.5 4.2 25 9.3 41.8 19.2 62 21 43.1 53.2 75.2 97 96.6 39.1 19.2 81.1 25.8 120.5 19z m909.8 -19.6 c28.5 -4.9 51.5 -12.5 83.4 -27.7 30.9 -14.7 48.3 -24.6 51.3 -29.1 2.3 -3.5 3.3 -18.9 4 -63.2 0.7 -39.2 1.4 -48.4 4.3 -54.5 5.1 -10.7 21 -19.2 42.1 -22.6 5.3 -0.8 10.7 -2 12 -2.5 2.2 -0.9 2.3 -1.2 0.9 -2.6 -1.4 -1.3 -6.5 -1.4 -48.9 -0.4 -26.1 0.6 -68.1 1.4 -93.4 1.6 -28.9 0.4 -46.3 0.9 -47 1.6 -2 2 2.2 2.9 15 2.9 15.5 0 24.5 1.7 34 6.4 16 7.9 23.4 20.9 27.5 47.8 1.7 11.3 2.4 52.6 1.1 66.3 -1.4 15.8 -3.2 19.3 -16.4 32.7 -21.3 21.4 -39.2 31.9 -62.7 36.9 -14.6 3 -44 3.1 -61 0.1 -33.1 -5.9 -60.7 -20.6 -85.5 -45.7 -33.3 -33.5 -53.9 -76 -61.1 -125.6 -2.7 -18.7 -2.5 -58.5 0.4 -77.4 4.5 -29.3 11.8 -52.9 24.2 -78 20.6 -42.1 46.5 -68.9 82.2 -85.4 37.8 -17.5 82.7 -18.6 122 -3.1 45.6 18.1 82.7 54.8 108.3 107.2 3.5 7.1 6.9 13.6 7.6 14.4 2 2.5 2.8 -0.3 1.8 -7.1 -1.7 -12.6 -6.9 -60.8 -8.4 -78.3 -1.6 -18.4 -3 -25.7 -5.1 -25.7 -0.6 0 -3 2.4 -5.3 5.2 -5.1 6.5 -8.8 8.5 -17.2 9.1 -8.7 0.6 -14.2 -1.1 -34.7 -10.7 -44.5 -20.8 -76.5 -29.1 -112.5 -29.1 -34.7 0 -70 8.9 -105.6 26.6 -46.4 23 -80.9 57.3 -102.7 101.9 -25 51.3 -29 110.6 -11.2 164.5 20.8 62.7 77.8 115.4 147.5 136.5 12.6 3.9 33.6 8 47.8 9.5 15.7 1.6 44 0.4 61.3 -2.5z m-828.6 -423.8 l5.3 -2.4 -8 0.5 c-4.4 0.2 -10.5 -0.1 -13.5 -0.7 -11.2 -2.3 -24 -10.2 -29.5 -18.2 -3.4 -4.9 -4.3 -4.4 -1.7 0.8 3 5.8 10.3 13.4 16.5 17.1 11 6.6 21 7.5 30.9 2.9z m629.7 -0.6 c0.7 -0.5 1.2 -1.4 0.9 -2.1 -0.2 -0.7 -1 -0.4 -2.2 0.9 -1.9 2.1 -1.2 2.8 1.3 1.2z m-37.9 -9.1 c0.6 0 0.8 -0.5 0.5 -1 -1 -1.7 -3.5 0.9 -3.4 3.4 0 2.1 0 2.1 0.9 -0.1 0.5 -1.3 1.4 -2.3 2 -2.3z m65.1 -22 c0.4 0 0.6 -0.7 0.3 -1.5 -0.8 -2.1 -1.7 -1.9 -3.3 0.6 -1.1 1.9 -1.1 2.1 0.4 1.5 0.9 -0.3 2.1 -0.6 2.6 -0.6z m-63.5 -27.2 l1.9 -2.1 -2.7 1.8 c-2.9 1.8 -3.4 2.5 -2 2.5 0.5 0 1.7 -1 2.8 -2.2z m43.3 -4.2 c0.9 -1 0.8 -1.6 -0.4 -2.6 -1.3 -1.1 -1.5 -0.8 -1.5 1.4 0 3 0.3 3.2 1.9 1.2z m-663.9 -4.6 c-1.9 -1.3 -3 -1.3 -3 0 0 0.6 1 1 2.3 1 1.8 0 1.9 -0.2 0.7 -1z m644 -8.8 c0 -0.9 -0.9 -0.7 -3 0.8 -1.6 1.2 -3 2.3 -3 2.5 0 0.2 1.4 -0.2 3 -0.8 1.7 -0.6 3 -1.7 3 -2.5z m-598 -2.2 c-0.6 -1.1 -1.6 -2 -2.2 -2 -0.6 0 -0.3 0.9 0.7 2 1 1.1 2 2 2.2 2 0.2 0 -0.1 -0.9 -0.7 -2z m576 -20.3 c0 -1.2 0 -1.1 -2.4 2.8 l-1.7 3 2 -2.4 c1.2 -1.3 2.1 -2.8 2.1 -3.4z m-603 -1.6 c-1.3 -1.1 -2.9 -1.7 -3.4 -1.3 -0.6 0.3 0.3 1.2 1.9 1.8 4.1 1.8 4.4 1.7 1.5 -0.5z m149.3 -7.7 c-2 -3 -2 -3 -1.5 0.5 0.3 2 0.9 2.8 1.8 2.4 1.1 -0.4 1 -0.9 -0.3 -2.9z m-38.5 -9.3 c-1.8 -1.6 -3.4 -2.8 -3.6 -2.7 -0.7 0.8 1.1 3.3 3.1 4.2 3.7 1.9 3.9 1.5 0.5 -1.5z m424.2 -4.1 c1.3 -2.5 1.3 -2.5 -0.8 -0.6 -1.2 1 -1.9 2.3 -1.6 2.8 0.7 1.1 0.7 1.1 2.4 -2.2z m-398.1 -12.1 c-2 -1.2 -2.2 -0.4 -0.7 2 1.1 1.8 1.4 1.9 1.6 0.5 0.2 -0.9 -0.2 -2 -0.9 -2.5z m-39.9 -1.3 c0 -0.2 -0.7 -0.9 -1.5 -1.6 -1.2 -1 -1.5 -1 -1.5 0.4 0 0.9 0.7 1.6 1.5 1.6 0.8 0 1.5 -0.2 1.5 -0.4z m409.3 -10.4 c1 -1 3.7 -5.5 6.1 -9.9 l4.3 -8.1 -2.4 -1.1 c-1.3 -0.6 -2.5 -1.1 -2.7 -1.1 -0.2 0 -0.6 1.9 -0.9 4.2 -0.3 2.3 -2.1 7.2 -3.9 11 -3.4 6.8 -3.6 8.4 -0.5 5z m-345.3 -18 c-1.2 -2.8 -3.3 -6.1 -4.7 -7.4 -2.3 -2.1 -2.3 -1.9 0.5 2.3 1.7 2.5 3.7 6.8 4.4 9.5 0.9 3.2 1.4 4.1 1.6 2.7 0.2 -1.2 -0.6 -4.4 -1.8 -7.1z m-38.6 3.4 c-0.3 -1.4 -1.3 -2.6 -2 -2.6 -1.2 0 -1.2 0.5 0.1 3.1 1.9 3.6 2.9 3.3 1.9 -0.5z m338.8 -12.4 c-0.8 -14.7 5.7 -30 16.6 -38.9 2.9 -2.4 5 -4.3 4.7 -4.3 -2.3 0 -10.9 5.8 -15.2 10.2 -10.4 10.6 -13.5 23.9 -8.4 35.6 1.3 2.8 2.4 5.2 2.6 5.2 0.1 0 0 -3.5 -0.3 -7.8z m-281.5 2.1 c-1.3 -2.6 -4.1 -11.4 -5 -15.8 -0.3 -1.1 -0.5 0 -0.6 2.5 0 4.2 2.5 11.6 5.1 14.7 1.7 2.1 1.9 1.5 0.5 -1.4z m391.5 -8 c-1.9 -1.6 -1.8 -1.7 -2.5 3.6 l-0.5 4.3 2.3 -3.3 c2.1 -3.1 2.2 -3.5 0.7 -4.6z m-329.9 1 c-0.3 -1.6 -1.2 -4.8 -2 -7.3 -1 -3.4 -1.2 -3.7 -0.8 -1.1 0.3 1.8 0.5 5.1 0.5 7.2 0 2.8 0.4 3.9 1.5 3.9 1.2 0 1.4 -0.7 0.8 -2.7z m121.7 -9.2 c0 -2.6 0.2 -7.7 0.5 -11.2 0.4 -6.3 0.4 -6.3 -0.9 1.6 -0.7 4.5 -1.7 9.5 -2.1 11.3 -0.5 2.5 -0.3 3.2 0.9 3.2 1.2 0 1.6 -1.1 1.6 -4.9z m-125.6 -7.5 c-0.3 -2.1 -0.8 -3.5 -1.1 -3.2 -0.2 0.2 -0.1 2 0.3 4 0.3 2.1 0.8 3.5 1.1 3.2 0.2 -0.2 0.1 -2 -0.3 -4z m59.7 -11.1 c-0.6 -8.6 -0.7 -8.9 -1.8 -5.6 -0.7 1.9 -1.3 4.2 -1.3 5.2 0 1.8 3 10.3 3.5 9.7 0.1 -0.2 -0.1 -4.3 -0.4 -9.3z m-66.1 -17 c-2.7 -12 -5.1 -22 -5.3 -22.2 -0.2 -0.2 -1.2 -0.1 -2.1 0.3 -1.4 0.5 -1.4 0.8 -0.2 1.8 1.8 1.4 3.6 7.5 8.2 27.4 2.1 9 4 16 4.1 15.5 0.2 -0.6 -1.9 -10.8 -4.7 -22.8z m106.3 15.6 c0 -2 -0.8 -5.2 -1.7 -7.1 -1.2 -2.5 -1.5 -2.8 -1.1 -1 0.2 1.4 0.5 5.4 0.5 9 0.1 5.2 0.3 6.1 1.2 4.6 0.6 -1.1 1.1 -3.5 1.1 -5.5z m28.4 -10.8 c-0.3 -1 -0.5 -0.2 -0.5 1.7 0 1.9 0.2 2.7 0.5 1.8 0.2 -1 0.2 -2.6 0 -3.5z m2.1 -11.8 l0 -4 -0.9 4 c-0.4 2.2 -0.8 5.4 -0.7 7 l0 3 0.8 -3 c0.4 -1.6 0.8 -4.8 0.8 -7z"/>
  <path d="M616.5 619 c-36.7 -4.1 -68.6 -16.3 -96.1 -36.8 -11.9 -8.9 -34.2 -31.3 -43.7 -43.9 -24.3 -32.6 -36.8 -66.4 -39.9 -108 -4.1 -55.5 11 -104.8 44.8 -146.9 33.5 -41.9 77.7 -67.2 128.7 -73.9 15.6 -2 48.8 -2 64.4 0 55.6 7.3 101.9 35.3 137.7 83.4 18.1 24.4 29.1 50 35.3 82.6 2.5 12.9 3 53.6 0.8 68.8 -6.1 43.7 -24.4 80.7 -56 113.6 -31.6 32.9 -66.8 51.7 -110.9 59.2 -13.8 2.4 -51.2 3.4 -65.1 1.9z m39.5 -104.5 c44.5 -6.7 79.9 -42.6 86.8 -87.8 l0.9 -5.9 -6.6 6.4 c-15.3 14.9 -29 23.8 -40.8 26.4 -10.4 2.3 -22.1 1.5 -29.7 -1.9 l-5.5 -2.6 -3.5 4.8 c-1.9 2.6 -4.6 5.3 -5.9 6 -1.4 0.7 -3.3 3.1 -4.3 5.2 -1.5 3.4 -2.1 3.9 -5.1 3.9 -2.9 0 -3.5 -0.4 -4.9 -4 -0.9 -2.2 -2.2 -4 -2.9 -4 -1.3 0 -5.7 -4.6 -8.5 -8.8 l-1.5 -2.3 -5.8 2.6 c-5.4 2.5 -6.6 2.7 -17 2.4 -10.7 -0.4 -11.6 -0.6 -19.7 -4.5 -10 -4.8 -21.9 -13.4 -32.5 -23.5 l-7.6 -7.2 0.6 4.4 c5 35.1 26.1 65.2 56.5 80.4 12 6 20.4 8.5 36 10.9 5.5 0.8 11.9 0.5 21 -0.9z m137 -96 c1 -1.2 1 -1.5 -0.4 -1.5 -0.9 0 -1.6 0.7 -1.6 1.5 0 0.8 0.2 1.5 0.4 1.5 0.2 0 0.9 -0.7 1.6 -1.5z m-59 -4 c2.3 -0.8 5.6 -1.5 7.2 -1.5 l3 0 -0.7 -6.2 c-1.8 -16.2 -8.5 -34.5 -17.5 -47.9 -6.3 -9.4 -22.1 -24.5 -31.7 -30.2 -30 -17.9 -61.7 -19.9 -91.7 -5.9 -11.3 5.4 -18.6 10.3 -27.5 18.7 -17 16.1 -27.7 35.8 -31.6 58.4 -2.2 12.1 -2.3 11.7 3.3 12.4 2.6 0.4 5.7 0.9 7 1.3 1.8 0.5 2.2 0.2 2.2 -1.6 0 -2.1 0.4 -2.1 7 -1.8 6.3 0.3 7 0.1 7 -1.5 0 -1.7 0.7 -1.8 6 -1.5 6 0.3 6 0.3 6 -2.4 0 -2.7 0.2 -2.8 5.5 -2.8 5.2 0 5.5 -0.1 5.5 -2.6 0 -2.5 0.1 -2.6 6.5 -2.2 6 0.3 6.5 0.1 6.5 -1.8 0 -1.7 0.9 -2.2 5.4 -3 l5.4 -0.9 -4.4 -9.9 c-3.4 -7.6 -4.4 -11.1 -4.4 -15.2 0 -4.3 0.3 -5.4 1.9 -5.9 2.8 -0.9 26.9 -0.9 47.1 -0.1 19.6 0.8 22 1.5 22 6.7 0 1.7 -2 7.8 -4.5 13.6 -2.5 5.8 -4.5 11.1 -4.5 11.9 0 1 1.4 1.4 5.5 1.4 4.8 0 5.5 0.2 5.5 2 0 1.8 0.7 2 5.5 2 5.1 0 5.5 0.2 5.5 2.4 0 2.3 0.2 2.4 6 1.9 l6 -0.6 0 3.5 0 3.4 6 -0.4 c5.6 -0.4 6 -0.3 6 1.7 0 1.9 0.6 2.1 6 2.1 5.3 0 6 0.2 6 2 0 2.4 0.5 2.4 6 0.5z m-234.7 -4.2 c-1.3 -0.2 -3.3 -0.2 -4.5 0 -1.3 0.2 -0.3 0.4 2.2 0.4 2.5 0 3.5 -0.2 2.3 -0.4z m10 -14 c-1.3 -0.2 -3.5 -0.2 -5 0 -1.6 0.2 -0.5 0.4 2.2 0.4 2.8 0 4 -0.2 2.8 -0.4z m93.7 -123.2 c-1.6 -3 -2.8 -3.3 -2.2 -0.6 0.2 1.4 1.1 2.5 1.9 2.5 1 0 1.1 -0.4 0.3 -1.9z m14 -3.5 c0 -0.8 -0.4 -1.8 -1 -2.1 -0.5 -0.3 -1 0.3 -1 1.4 0 1.2 0.5 2.1 1 2.1 0.6 0 1 -0.6 1 -1.4z"/>
 </g>
 <g fill="#28186a">
  <path d="M621 709 c-78.6 -4.7 -143.9 -32.4 -198.4 -84.1 -5.5 -5.2 -13.9 -13.9 -18.8 -19.3 -7.7 -8.7 -8.8 -10.4 -8.8 -13.6 0 -4.8 -3.1 -8.7 -7.4 -9.5 -2.9 -0.6 -4.3 -2.1 -10.4 -11.3 -24.1 -36.7 -37.7 -73.5 -43.8 -118.7 -2.1 -15.9 -2.5 -56.9 -0.6 -72 1.6 -12.3 5.2 -32.5 6.2 -34.4 1.3 -2.5 14.2 19.4 23.4 40 6.8 15.1 9.9 19.2 14.5 19.2 4.8 0 6.4 -2.3 6.9 -9.5 0.4 -8.9 -7.5 -124.5 -8.9 -128.9 -1.1 -3.5 -1 -3.9 3.9 -11 32.4 -47.8 81.3 -89 132.4 -111.5 76.3 -33.6 176.6 -35.1 254.3 -3.9 41 16.4 74.1 38.9 106 71.7 23.7 24.2 37.8 43.4 52.4 71 6 11.4 14.1 29.9 14.1 32.4 0 0.8 -3 5.1 -6.7 9.6 -32 39.6 -49.3 89.7 -49.3 142.8 0 35.1 6.7 65.7 20.9 95 2.2 4.7 4.1 9 4.1 9.6 0 3.4 -21.5 29.8 -37.3 45.7 -45.9 46 -99.3 74.3 -161.8 85.6 -24.9 4.6 -60.9 6.7 -86.9 5.1z m57.6 -94.9 c44 -7.4 79.3 -26.3 110.9 -59.2 31.7 -33 49.9 -69.9 56 -113.6 2.1 -14.9 1.7 -49.8 -0.8 -62.8 -7.7 -40.6 -22.9 -70.8 -51.8 -102.5 -26.8 -29.6 -63 -51.1 -100.4 -59.8 -22.4 -5.2 -55.5 -6.8 -79.2 -3.7 -58.2 7.6 -108.1 40 -142.3 92.5 -40.5 62.3 -42.3 146.3 -4.5 210.5 3.1 5.2 9 14.1 13.2 19.8 9.5 12.6 31.8 35 43.7 43.9 27.5 20.5 59.4 32.7 96.1 36.8 13.1 1.4 45.3 0.4 59.1 -1.9z"/>
  <path d="M632 518.4 c-15.6 -2.4 -24 -4.9 -36 -10.9 -21.1 -10.6 -36.8 -27 -47.4 -49.7 -5.8 -12.3 -8.6 -23.6 -9.3 -37.9 -1.6 -31.4 9.8 -59.7 32.8 -81.4 13 -12.3 27.9 -20.5 45.7 -25.2 8.2 -2.1 12 -2.5 24.7 -2.6 12.6 -0.1 16.4 0.3 23.9 2.2 20.3 5.2 34.5 13.2 48.6 27.1 15 14.7 23.5 29.1 28.7 48.8 2.3 8.5 2.6 11.6 2.6 25.7 0 14.1 -0.3 17.2 -2.6 25.7 -10.9 40.9 -44.1 71.1 -84.7 77.3 -8.8 1.4 -21 1.7 -27 0.9z m17 -61.7 c2.2 -1.3 5.7 -5.8 10.7 -13.6 0.2 -0.2 1.1 0.3 2.1 1.2 1 0.9 4.2 2.7 7.2 4.1 16.2 7.4 33.6 2.6 55.1 -15.1 9.1 -7.5 19.2 -17.9 16.4 -16.9 -3.7 1.4 -12.9 3.6 -14.7 3.6 -2.4 0 -3.2 -1.8 -1.7 -3.6 1.1 -1.4 0.5 -1.5 -5.9 -0.8 -4.9 0.4 -7.2 0.3 -7.2 -0.4 0 -0.6 0.5 -1.4 1 -1.7 2.7 -1.6 0.3 -2.3 -6.5 -1.8 -7.7 0.6 -8.5 0.2 -6 -3.1 0.8 -1.1 1.5 -2.3 1.5 -2.7 0 -0.3 -3.1 -0.4 -7 -0.1 -5.6 0.4 -7 0.2 -7 -1 0 -0.8 0.5 -1.9 1.2 -2.6 0.9 -0.9 -0.4 -1.2 -6.2 -1.2 -7.1 0 -7.3 -0.1 -5.6 -1.9 1.6 -1.8 1.5 -1.9 -4.8 -2.3 -3.6 -0.2 -6.8 -0.6 -7.1 -0.9 -0.2 -0.3 2.2 -6.8 5.5 -14.5 l5.9 -13.9 -2.1 -1.7 c-2.3 -2 -6.9 -2.3 -9.9 -0.7 -1.6 0.8 -2.9 0.7 -5.6 -0.6 -2.9 -1.4 -4.3 -1.5 -7.1 -0.7 -2.3 0.8 -4.1 0.8 -5.4 0.1 -1 -0.5 -4.4 -0.9 -7.6 -0.9 -3.1 0.1 -7.2 0.1 -9 0 -1.8 -0.1 -3.9 0.3 -4.6 0.9 -0.8 0.7 -2.3 0.7 -4.8 -0.1 -5 -1.5 -8.8 -0.4 -8.8 2.6 0 1.4 2.5 8 5.5 14.7 3 6.7 5.5 12.6 5.5 13 0 0.3 -3 1 -6.6 1.4 l-6.7 0.7 2.9 2.5 2.9 2.4 -9.5 -0.5 c-7.3 -0.5 -9.1 -0.3 -8.2 0.6 0.7 0.7 1.2 2 1.2 3.1 0 1.7 -0.6 1.8 -6.6 1.2 -6.5 -0.7 -6.6 -0.7 -5.5 1.3 1.9 3.5 1.4 5.5 -1.1 4.9 -1.3 -0.3 -4.5 -0.9 -7.3 -1.3 l-5 -0.7 1.9 2.2 c2.7 3 1.5 3.6 -5 2.2 -3.2 -0.6 -6.8 -1.1 -8.1 -1.1 l-2.4 0 2.8 2.5 2.8 2.4 -4 0.1 c-2.2 0 -6.7 -0.7 -10 -1.4 -3.3 -0.8 -6.1 -1.3 -6.3 -1.2 -0.1 0.2 3.4 3.7 7.8 7.9 10.9 10.4 22.9 19.2 32.8 24 7.1 3.4 9.7 4.1 16.3 4.5 8.9 0.5 14 -0.9 20.5 -5.7 l3.8 -2.9 2.9 4.7 c3.5 5.6 7.6 10.1 9.3 10.1 0.6 0 2 1.9 2.9 4.3 l1.7 4.2 2 -4.1 c1.2 -2.3 3.3 -4.8 4.8 -5.7z"/>
  <path d="M190 703.6 c-54.3 -7.1 -104.9 -34.9 -138.4 -76.1 -19.5 -23.9 -33.9 -52.7 -40.9 -81.5 -5.4 -22.1 -6.2 -30.3 -6.2 -61.5 0 -32.4 1 -41.6 7 -65.1 14.3 -55.9 47.4 -102.1 93 -129.7 26 -15.7 53.8 -26 82 -30.4 13.5 -2.1 41 -2.3 54.5 -0.4 28 3.9 64.8 17 91.6 32.7 l4.4 2.6 4.9 -4.1 c7.1 -6 15.8 -15.7 18.1 -20.1 3.4 -6.6 9.4 -7.8 11.8 -2.5 1.5 3.2 9.8 128.1 8.8 131.9 -0.5 2.1 -1.2 2.6 -3.6 2.6 -3.4 0 -6.1 -3.6 -10.5 -14.1 -21.3 -50.7 -59.1 -92.5 -99.2 -109.4 -15 -6.3 -25.8 -8.6 -42.8 -9.2 -16.6 -0.6 -24.4 0.3 -38.1 4.2 -57.3 16.7 -97.6 73.7 -110.6 156.6 -1.9 12.5 -2.2 18.3 -2.2 43.4 0 25 0.3 30.9 2.2 43 8.2 51.9 27.1 89.8 61.8 123.6 23 22.3 44.5 35 71.4 42.2 11.1 2.9 12.3 3.1 32.5 3.1 19.6 0 21.7 -0.2 30.7 -2.6 12.5 -3.4 24.4 -8.2 34.1 -13.7 24 -13.8 51.7 -41.1 65.5 -64.6 9.3 -15.9 10.5 -17.7 12.9 -18.6 3.8 -1.4 7.3 1.2 7.3 5.5 0 9.7 -25.8 46.4 -43.9 62.4 -29.3 26 -61.6 41.7 -99.1 48.3 -15 2.7 -44.3 3.4 -59 1.5z"/>
  <path d="M1091.5 685 c-55.5 -5.7 -103.2 -27.5 -142.9 -65 -43.9 -41.7 -65.8 -97.4 -63.3 -161 1.4 -34.2 8.2 -62 22.1 -90.5 21.8 -44.6 56.3 -78.9 102.7 -101.9 36.8 -18.3 70.7 -26.6 108.6 -26.6 39.2 0 69.8 7.7 115.5 29.1 19.6 9.2 26.3 11.4 32.2 10.5 5.8 -0.9 9.8 -3.6 14.6 -10 4.8 -6.3 6.4 -7.2 9.6 -5.1 3 1.9 4.1 6.2 5.4 21 2 23.4 3.2 34.4 6.7 64.4 3.8 32.7 3.7 35.1 -1 35.1 -3.4 0 -5.1 -2.2 -12.2 -16.8 -25.6 -52.5 -62.7 -89.1 -108.3 -107.2 -48.7 -19.3 -100.5 -12.2 -143.8 19.6 -21.8 16 -39.3 38.1 -54.4 68.9 -12.4 25.1 -19.7 48.8 -24.2 78 -2.8 18.7 -3 53 -0.4 71.4 7.1 49.5 27.8 92 61.1 125.6 19.2 19.5 39.6 32.4 63.4 40.2 16.2 5.3 30.7 7.4 50.1 7.5 30.6 0 48.7 -5.8 72 -23.1 10.8 -8.1 27.4 -25.3 30.5 -31.5 3.6 -7.3 4.9 -22.7 4.1 -49.1 -1.3 -47.4 -8.4 -65.9 -29.1 -76.1 -9.5 -4.7 -18.5 -6.4 -33.8 -6.4 -7.1 0 -13.7 -0.5 -14.8 -1 -2.3 -1.3 -2.6 -6.2 -0.5 -7.9 1.1 -0.9 13.2 -1.3 44.8 -1.6 23.8 -0.2 67 -0.9 96 -1.6 42.3 -0.9 53.1 -0.9 54.3 0.1 0.8 0.7 1.5 2.8 1.5 4.6 0 4.2 -1 4.7 -14.1 6.8 -21.1 3.4 -37 11.9 -42.1 22.6 -2.9 6.1 -3.6 15.3 -4.3 54.5 -0.7 44.3 -1.7 59.7 -4 63.2 -3 4.5 -20.4 14.4 -51.3 29.1 -31.8 15.2 -54.8 22.8 -83.4 27.7 -12.4 2.1 -19.4 2.7 -36.8 3 -11.8 0.2 -25.5 0 -30.5 -0.5z"/>
 </g>
 <g fill="#c22f28">
  <path d="M591 792 c-3.5 -0.9 -8 -5 -8 -7.4 0 -2.2 3.8 -6.3 7.1 -7.6 l3.1 -1.3 -3.6 -1.9 c-4.7 -2.4 -4.8 -5.6 -0.4 -9.3 2.8 -2.4 3 -2.8 1.5 -3.7 -2.4 -1.3 -4.7 -6.1 -4.7 -9.8 0 -2.2 1.1 -4.3 3.8 -7.2 3.4 -3.6 4.5 -4.2 9.3 -4.6 4.3 -0.3 5.9 0 7.8 1.5 2.4 2 2.5 2 5.9 -0.3 4.3 -3 4.4 -3 7.9 0 2.4 2 2.5 2.6 1.4 4 -1.8 2.1 -3.4 2 -5.5 -0.3 -1.4 -1.6 -2.2 -1.8 -3.6 -0.9 -1.4 0.9 -1.5 1.6 -0.7 3.8 1.5 3.8 0.1 9.3 -3.1 12.4 -2.1 1.9 -4.6 2.9 -9.3 3.7 -6.9 1.1 -10.1 3.1 -8.2 5 0.6 0.6 5.7 1.5 11.2 1.8 9.4 0.7 10.4 1 13.2 3.7 2.7 2.5 3 3.4 2.6 6.7 -0.6 4.4 -3.8 8.3 -8.3 10.3 -4.1 1.7 -15 2.5 -19.4 1.4z m19.6 -5.4 c3.7 -3.7 4.1 -5.3 2 -8.1 -1.9 -2.7 -14 -3.4 -18.4 -1.1 -3.8 2 -5.6 5 -4.8 8.2 0.8 3.2 3.6 4.3 11.5 4.3 5.9 0.1 6.5 -0.1 9.7 -3.3z m-6.7 -28.2 c4.3 -5.5 1.5 -17.4 -4 -17.4 -1.1 0 -3.1 1.1 -4.4 2.5 -2 1.9 -2.5 3.4 -2.5 7.5 0 8.6 6.5 13 10.9 7.4z"/>
  <path d="M452.5 771.6 c-12.4 -5.7 -12.7 -22.4 -0.5 -30.9 7.3 -5.1 20 1.7 20 10.8 l0 2.5 -11 0 -11 0 0 2.9 c0 4 1.4 7.5 4.1 10 3 2.8 9.7 2.8 13.2 0.1 2.9 -2.3 3.7 -2.5 3.7 -0.7 0 4.4 -12.6 8.1 -18.5 5.3z m12.4 -21.4 c1.4 -2.6 -1.2 -8 -4.2 -8.8 -3.3 -0.8 -6.3 1 -8.7 4.9 -3.2 5.2 -2.8 5.7 5 5.7 5.6 0 7.1 -0.3 7.9 -1.8z"/>
  <path d="M486 771.9 c-8.2 -3.4 -12.2 -13.7 -8.7 -22.2 0.8 -1.8 3.3 -4.9 5.6 -6.9 3.4 -3.2 4.8 -3.8 8.4 -3.8 7 0 13.7 6.1 13.7 12.5 0 2.4 -0.1 2.4 -10.7 2.7 l-10.8 0.3 -0.3 2.7 c-0.3 2.9 2.2 8.6 4.7 10.5 2.5 1.9 9 1.5 12.7 -0.8 2.8 -1.7 3.4 -1.8 3.4 -0.5 0 4.2 -12.1 8 -18 5.5z m11.5 -21.5 c1.9 -1.9 1.2 -5.2 -1.7 -7.6 -2.5 -2.2 -4.7 -2.3 -7.7 -0.2 -1.9 1.4 -5.1 6.9 -5.1 8.9 0 0.3 2.9 0.5 6.4 0.5 4.6 0 6.9 -0.5 8.1 -1.6z"/>
  <path d="M556.3 772 c-3.4 -1.4 -5.6 -5.4 -4.8 -8.8 0.8 -3.9 3.9 -6.5 10 -8.7 2.8 -1 5.8 -2.5 6.8 -3.3 2.3 -2 2.2 -5.7 -0.4 -8.3 -2.9 -2.9 -6.1 -2.1 -8.1 2 -2.4 4.9 -3.4 5.7 -5.3 4.1 -2.6 -2.2 -1.8 -5.8 1.8 -8.1 2.6 -1.6 4.5 -1.9 9.6 -1.6 9.4 0.5 10.1 1.7 10.1 16.7 0 9.7 0.3 12 1.7 13.1 0.9 0.8 1.9 1.3 2.2 1.1 0.3 -0.2 0.7 0.1 0.9 0.7 0.2 0.7 -1.6 1.1 -4.8 1.1 -4.3 0 -5.3 -0.3 -5.7 -2 -0.5 -1.9 -0.6 -1.9 -3.2 0 -3.2 2.3 -7.9 3.2 -10.8 2z m11.2 -5 c1.3 -1.4 2 -4.1 2.3 -8.1 l0.5 -6.1 -4.4 2.7 c-2.4 1.5 -5.2 3.4 -6.1 4.3 -2.1 1.7 -2.4 6.2 -0.6 8 1.9 1.9 6.3 1.4 8.3 -0.8z"/>
  <path d="M634.5 771.6 c-8.1 -3.7 -11.7 -13.4 -8.2 -21.9 0.8 -1.8 3.3 -4.9 5.6 -6.9 3.5 -3.2 4.8 -3.8 8.7 -3.8 4.2 0 5.1 0.5 9.1 4.4 3.5 3.5 4.4 5.1 4.1 7.3 l-0.3 2.8 -10.7 0.3 -10.8 0.3 0 2.9 c0 3.9 1.4 7.4 4.1 9.9 3 2.8 9.7 2.8 13.2 0.1 2.9 -2.3 3.7 -2.5 3.7 -0.7 0 4.4 -12.6 8.1 -18.5 5.3z m11.9 -21.2 c2 -1.9 1.9 -1.8 0.1 -5.4 -1.8 -3.4 -5.4 -4.7 -8.5 -3 -2.2 1.2 -6 6.7 -6 8.8 0 1.9 12.4 1.6 14.4 -0.4z"/>
  <path d="M697.8 771.5 c-2.6 -0.9 -4 -1 -4.4 -0.3 -1.1 1.8 -2.4 -1.5 -2.4 -6.4 0 -5.8 1.3 -6.1 3.9 -1 2.5 4.9 4.2 6.3 8 6.4 4.2 0.1 6.3 -1.9 5.9 -5.6 -0.3 -2.7 -1.2 -3.6 -7 -6.6 -7.5 -4 -9.7 -6.2 -9.8 -10.1 0 -6.3 7.2 -10.6 14.5 -8.4 2.2 0.6 4.5 1 5.2 0.8 1.2 -0.4 2.3 7.1 1.2 8.9 -0.4 0.5 -1.7 -0.8 -3 -3.1 -1.3 -2.4 -3.3 -4.4 -4.6 -4.7 -3.2 -0.8 -7 0.3 -7.7 2.2 -1.1 2.7 1.3 5.3 7.7 8.2 7.6 3.5 9.2 5.3 9.2 10.3 0 7.8 -8.5 12.6 -16.7 9.4z"/>
  <path d="M756 770.9 c-5.6 -2.5 -9.5 -6.2 -12.3 -11.4 -3.1 -5.8 -3.1 -19.3 0 -25.1 3 -5.5 9.3 -10.9 14.9 -12.4 5.2 -1.5 13.9 -0.8 18.1 1.4 2.7 1.3 3.1 1.3 4.6 -0.1 0.9 -0.9 1.9 -1.4 2.2 -1.1 1.1 1.1 1.8 15.8 0.9 15.8 -0.6 0 -2.2 -2.2 -3.8 -4.8 -3.2 -5.4 -7.5 -8.8 -12.6 -9.7 -5.2 -0.9 -11.8 2.8 -14.5 8.1 -1.1 2.2 -2.9 4.5 -4 5 -2.6 1.2 -4.4 6.5 -4.4 13.7 -0.1 5.1 0.1 5.7 1.9 5.7 1.1 0 2 0.5 2 1 0 0.6 0.5 1 1 1 0.6 0 3.5 2.4 6.4 5.4 4.3 4.5 6 5.5 9.8 6.1 5.9 0.9 10.6 -1.1 14.8 -6.4 5.2 -6.4 7.3 -4.8 2.4 1.7 -5.7 7.4 -18.3 10.2 -27.4 6.1z"/>
  <path d="M911.8 772.3 c-3.5 -0.6 -9.3 -6.4 -10.8 -10.8 -2.4 -7.3 1.3 -16.8 8.2 -20.9 1.4 -0.9 4.6 -1.6 7.1 -1.6 7.7 0 14.4 6.5 10.3 9.9 -1.6 1.3 -3.1 0.1 -6.9 -5.3 -5.2 -7.6 -14 2.3 -12.2 13.8 2.1 12.8 12.7 16.5 18.2 6.3 1.7 -3.1 1.8 -3.1 2.1 -0.8 0.3 1.7 -0.6 3.4 -3 5.7 -3.4 3.3 -7.7 4.6 -13 3.7z"/>
  <path d="M405 771 c0 -0.5 0.9 -1 1.9 -1 1 0 2.9 -0.9 4.2 -1.9 2.4 -1.9 2.4 -2 2.3 -22.1 -0.1 -14.2 -0.5 -20.4 -1.3 -20.9 -0.6 -0.4 -3.7 -0.4 -6.9 0 -5 0.7 -6.2 1.3 -9.3 4.8 -2 2.3 -3.9 4.1 -4.3 4.1 -0.8 0 -0.8 -4.9 0 -8.9 l0.7 -3.1 25.2 0 25.2 0 0.6 5.7 c0.3 3.2 0.4 6 0.1 6.2 -0.3 0.3 -2.1 -1.2 -4.1 -3.3 -4.3 -4.5 -6.9 -5.6 -13.5 -5.6 l-5 0 0.4 20.6 c0.3 20.2 0.3 20.6 2.7 22.5 1.3 1 3.2 1.9 4.2 1.9 1 0 1.9 0.5 1.9 1 0 0.6 -4.8 1 -12.5 1 -7.7 0 -12.5 -0.4 -12.5 -1z"/>
  <path d="M510 771.2 c0 -0.4 0.9 -1.3 2 -2 1.8 -1.1 2 -2.3 2 -13.2 0 -10.7 -0.2 -12.2 -2 -14 -1.1 -1.1 -2 -2.2 -2 -2.6 0 -0.3 2.1 -0.4 4.8 -0.2 4.3 0.3 4.7 0.5 5 3 l0.3 2.7 4.1 -2.9 c4.5 -3.3 8.4 -3.8 12.7 -1.5 4 2 5.1 6.1 5.1 18 0 9.5 0.2 10.4 2.3 11.8 2.1 1.5 1.8 1.6 -5 1.6 -3.9 0.1 -7.5 -0.3 -7.8 -0.9 -0.3 -0.5 0.1 -1 0.9 -1 2.6 0 3.6 -3.5 3.6 -12 0 -9.6 -1.7 -14.6 -5.3 -15.5 -5.6 -1.5 -9.2 3 -10.7 13.2 -1.2 8.5 -0.4 13.4 2.2 14 4.1 1.1 1.4 2.3 -5.2 2.3 -3.8 0 -7 -0.3 -7 -0.8z"/>
  <path d="M658.5 771 c-0.3 -0.5 0.3 -1 1.4 -1 2.8 0 3.2 -2.4 2.9 -15.5 -0.3 -10.3 -0.4 -11.1 -2.5 -12 -2.7 -1.2 -3 -2.5 -0.5 -2.5 0.9 0 3.4 -0.3 5.5 -0.6 3.6 -0.6 3.7 -0.6 3.7 2.5 0 1.7 0.3 3.1 0.6 3.1 0.4 0 2.2 -1.3 4.1 -3 1.8 -1.6 4.4 -3 5.7 -3 2.8 0 5.6 2.9 5.6 5.9 0 3.1 -2.7 3.7 -5.5 1.1 -2.9 -2.7 -5.2 -2.3 -7.9 1.3 -1.7 2.3 -2.1 4.2 -2.1 11.8 0 7.5 0.3 9.3 1.8 10.3 0.9 0.7 1.7 1.6 1.7 2 0 1 -13.8 0.7 -14.5 -0.4z"/>
  <path d="M790 771 c0 -0.5 0.6 -1 1.4 -1 2 0 2.3 -1.7 3.1 -14.3 1 -15.5 -0.2 -30.4 -2.6 -32.8 -1.1 -1.1 -1.9 -2.1 -1.9 -2.4 0 -0.3 2.3 -0.5 5 -0.5 l5 0 0 10.8 c0 6 0.3 11.1 0.6 11.5 0.3 0.3 2 -0.3 3.7 -1.4 4.2 -2.5 9.7 -2.4 13 0.2 3.6 2.8 4.9 8.3 4.1 17.7 -0.6 7.2 -0.5 8.1 1.5 10.1 1.1 1.1 2.1 2.3 2.1 2.6 0 0.3 -3.2 0.5 -7.1 0.5 l-7.2 0 2.8 -2.6 c2.7 -2.5 2.7 -2.7 2.3 -12.3 -0.5 -12.2 -2.1 -15.4 -7.5 -14.9 -5.9 0.5 -7.7 3.9 -8.1 15.7 -0.4 9.2 -0.3 9.9 1.9 12 l2.3 2.1 -7.2 0 c-4.1 0 -7.2 -0.4 -7.2 -1z"/>
  <path d="M836.4 769.9 c-1.6 -1.8 -2 -4 -2.3 -15 -0.2 -10.2 -0.6 -12.9 -1.7 -12.9 -0.8 0 -1.4 -0.4 -1.4 -0.9 0 -0.9 7.7 -2 8.6 -1.2 0.2 0.2 0.4 5.4 0.4 11.4 0 17 3.5 21.7 11.2 14.8 3.2 -2.8 3.2 -3.1 3.6 -13 0.4 -9.7 0.3 -10.3 -1.7 -10.8 -1.1 -0.3 -2.1 -0.9 -2.1 -1.3 0 -0.8 8.8 -1.8 9.6 -1.1 0.2 0.2 0.4 6.6 0.4 14.1 0 11 0.3 14 1.5 15 2.6 2.2 1.6 3.1 -2.7 2.8 -3.9 -0.3 -4.3 -0.6 -4.6 -3.1 l-0.3 -2.8 -3.5 3.1 c-4.4 3.8 -11.9 4.3 -15 0.9z"/>
  <path d="M870 771 c0 -0.5 0.7 -1 1.5 -1 2.3 0 3.5 -4.3 3.5 -12.3 0 -10.4 -0.9 -14.9 -3.2 -15.5 -2.4 -0.6 -2.3 -2.2 0.1 -2.2 1 0 3.3 -0.3 5 -0.6 2.9 -0.6 3.1 -0.4 3.7 2.4 l0.6 3.1 3.6 -2.9 c4.2 -3.5 8.1 -3.8 10.6 -1.1 2.1 2.3 1.8 5 -0.7 6.5 -1.5 0.9 -2.2 0.7 -3.7 -1.1 -2.6 -3.3 -5.7 -2.9 -8 1 -2.9 4.7 -2.9 19.9 0 22 1.1 0.8 1.7 1.7 1.3 2 -1 1.1 -14.3 0.8 -14.3 -0.3z"/>
  <path d="M933 771 c0 -0.5 0.6 -1 1.4 -1 2.2 0 2.8 -6.3 2.4 -27.3 -0.3 -16.6 -0.5 -19 -2 -20.1 -2.8 -2.1 -2.1 -2.6 3.2 -2.6 l5 0 0 11.5 c0 6.3 0.3 11.5 0.8 11.5 0.4 0 1.8 -0.9 3.2 -2 4 -3.1 10.5 -2.7 14.1 0.9 2.9 2.9 2.9 3.1 2.9 14.5 0 8.8 0.3 11.8 1.5 13 2.4 2.3 1.9 2.6 -4.5 2.6 -6.3 0 -7.1 -0.5 -4.2 -2.6 1.4 -1 1.7 -2.8 1.6 -11.7 0 -12.9 -1.3 -15.7 -7.3 -15.7 -5.9 0 -7.4 3 -7.9 15.9 -0.4 10 -0.3 10.5 1.9 12.2 2.4 1.8 2.4 1.9 -4.8 1.9 -4.2 0 -7.3 -0.4 -7.3 -1z"/>
  <path d="M606.5 589.9 c-21.4 -4.5 -47.5 -15.7 -64.5 -27.7 -33.1 -23.3 -57.9 -56.9 -69.4 -94.2 -3.6 -12 -7 -27.3 -6.4 -29.2 0.2 -0.6 1.2 3.4 2.2 8.8 5.6 30.4 21 61.5 42.2 85.4 25.1 28.3 62.4 49.7 98.4 56.3 12.3 2.3 12.9 2.5 9.5 2.5 -1.6 0 -7 -0.8 -12 -1.9z"/>
  <path d="M654 582.9 c0 -0.5 2.1 -0.9 4.7 -0.9 2.5 0 4.4 0.2 4.2 0.4 -1 0.8 -8.9 1.3 -8.9 0.5z"/>
  <path d="M616 581.5 c-69.9 -12 -124.2 -64.5 -138.4 -133.7 -12.5 -61.2 10.9 -125.9 59.6 -164.5 14.8 -11.7 33.8 -23.3 38 -23.3 0.7 0 -2.6 2 -7.5 4.5 -41.1 20.9 -71.1 56.7 -85.1 101.3 -4.8 15.4 -6.9 30 -6.9 48.7 0.1 18.1 0.9 25 4.9 41.3 12.6 51.3 51.4 95.5 101 115.1 11.1 4.4 26.8 8.7 35.7 9.7 3.2 0.4 6 1.1 6.3 1.5 0.3 0.5 0.4 0.9 0.2 0.8 -0.2 -0.1 -3.7 -0.7 -7.8 -1.4z"/>
  <path d="M706 581.5 c0 -0.7 7 -3.5 8.4 -3.4 0.6 0 -0.7 0.9 -2.9 1.9 -4.2 2 -5.5 2.3 -5.5 1.5z"/>
  <path d="M687.4 577.3 c0.9 -0.9 7.7 -3.3 9.5 -3.3 0.8 0 1.2 0.2 1 0.4 -0.7 0.7 -11.2 3.6 -10.5 2.9z"/>
  <path d="M699.3 573.4 c0.3 -0.4 5 -2.6 10.4 -4.9 35.7 -15.4 65.4 -43.6 83 -79 12.3 -24.5 17.4 -46.6 17.4 -75 0 -17.4 -1 -25.8 -4.7 -40.7 -17.1 -68.4 -76.9 -120.3 -145.6 -126.4 -4.3 -0.4 -7.8 -1 -7.8 -1.5 0 -0.9 2 -0.6 19.2 2.1 69.5 11.3 125.1 66.8 138 137.9 2.9 16 2.9 40.8 0 57.2 -10.1 56 -46.6 103 -98.2 126 -10.4 4.7 -13.1 5.6 -11.7 4.3z"/>
  <path d="M729.5 570.5 c1.1 -0.9 6.9 -4.8 12.8 -8.7 11.6 -7.6 28.6 -23.1 38 -34.6 18 -22 30.6 -48.5 36.8 -77.2 3.4 -16.1 3.9 -46.9 0.9 -64.3 -6.4 -38 -22.4 -69.1 -49.5 -96.3 -18.9 -18.9 -37.2 -31.2 -60.3 -40.5 -10.3 -4.1 -31.3 -9.9 -35.7 -9.9 -1.3 0 -2.7 -0.5 -3 -1 -0.4 -0.7 0.2 -0.9 1.7 -0.5 1.2 0.3 5.7 1.2 9.8 2 17.9 3.7 41.5 13.5 57.8 24.1 69.3 45 99.4 129.8 73.6 207.4 -12.3 36.8 -37.9 70.6 -69.6 91.8 -8.2 5.4 -16.4 10.2 -13.3 7.7z"/>
  <path d="M627 528.5 c-27.6 -4.7 -48 -15.4 -66.6 -34.7 -12.6 -13.1 -20.9 -26.9 -26.4 -43.9 -15.1 -46.1 0.7 -96.7 39.4 -126.3 8.1 -6.2 22.3 -14.6 24.6 -14.6 0.8 0.1 -1.6 1.6 -5.3 3.5 -36.3 18.5 -58.9 51.7 -62.7 92 -4.8 49.1 24.6 97.2 70.5 115.6 9.7 3.8 21.1 6.8 29.7 7.6 3.7 0.3 6.8 1 6.8 1.4 0 1.1 -0.3 1 -10 -0.6z"/>
  <path d="M681 522.7 c0.3 -0.3 5.5 -3 11.5 -6 27.4 -13.8 46.3 -34.7 56.9 -63 4.8 -12.9 6.6 -23.5 6.6 -39.2 0 -20.1 -3.2 -34.2 -11.8 -51 -10.9 -21.5 -27.4 -38.4 -48.6 -49.7 -3.9 -2.1 -6.4 -3.8 -5.5 -3.8 2.7 0 18.9 10.3 26.8 17.1 43.7 37.6 53.3 99.9 23 148.4 -9.7 15.6 -26.2 31.2 -42 39.9 -5.8 3.2 -18.1 8.5 -16.9 7.3z"/>
  <path d="M465.2 432 c0 -1.9 0.2 -2.7 0.5 -1.7 0.2 0.9 0.2 2.5 0 3.5 -0.3 0.9 -0.5 0.1 -0.5 -1.8z"/>
  <path d="M466.1 390.5 c-0.1 -3.9 4.2 -22.9 7.5 -33 10.9 -33.3 34.9 -66 63.9 -87.2 8.3 -6.1 21.5 -14.3 22.9 -14.3 0.6 0 -3.3 2.6 -8.6 5.8 -13 8 -20.5 13.9 -32.2 25.1 -27.8 27.1 -44.2 57.9 -51.6 97.1 -1 5.2 -1.8 8.2 -1.9 6.5z"/>
  <path d="M304.8 260.8 c-2.7 -0.7 -3.8 -1.5 -3.8 -2.9 0 -1.7 0.8 -1.9 9.3 -1.8 5 0 10.2 0.3 11.5 0.6 2.5 0.6 3 3.8 0.6 4.7 -2.4 0.9 -13.4 0.5 -17.6 -0.6z"/>
  <path d="M920.3 259.1 c-4.7 -2.2 -8.3 -7.1 -8.3 -11.2 0 -3.2 3.5 -7.9 5.9 -7.9 2.6 0 6.1 2.9 6.1 5.2 0 1.8 -0.4 1.9 -3.6 1.3 -2.4 -0.4 -3.4 -0.3 -2.9 0.4 0.3 0.6 1.6 1.1 2.8 1.1 1.6 0 1.8 0.3 0.9 1.2 -3.9 3.9 0.8 7.7 10.5 8.5 8.7 0.7 14.4 -0.9 19.4 -5.4 2.9 -2.6 3.9 -3.1 3.9 -1.9 0 1.3 0.4 1.5 1.9 0.6 1.1 -0.5 3.1 -1 4.6 -1 2.5 0 2.5 0.1 0.9 2.5 -2 3.1 -2.4 3.1 13.3 0.5 18.6 -3 22.5 -5.2 20.9 -11.6 -0.4 -1.3 -0.2 -2.4 0.3 -2.4 1.1 0 10.4 17 9.7 17.7 -0.3 0.3 -1.6 -0.1 -2.8 -0.9 -4.9 -3.1 -6.6 -3.1 -37.8 1.7 -9.6 1.4 -22.9 2.8 -29.5 3.1 -10.6 0.4 -12.5 0.3 -16.2 -1.5z"/>
  <path d="M577.5 259 c0.6 -1 7.4 -3.4 8 -2.8 0.2 0.2 -1.6 1.1 -4.1 2.1 -2.5 0.9 -4.2 1.2 -3.9 0.7z"/>
  <path d="M333.8 255.2 c-1 -0.2 -1.8 -0.8 -1.8 -1.3 0 -0.5 -0.9 -0.9 -2 -0.9 -3.8 0 -2 -2.6 3.4 -4.9 3.3 -1.3 7.1 -4 9.5 -6.6 6.8 -7.4 7.7 -16.3 2.7 -28.5 -2.1 -5.3 -2.2 -6.1 -0.8 -5.8 3 0.6 6.1 10.4 6.2 19 0 9.3 -2.1 15.7 -7.4 22.2 -4.3 5.2 -7.4 7.4 -9.8 6.8z"/>
  <path d="M568.6 252.1 c1.4 -1.4 13.5 -6.3 14.5 -5.9 0.4 0.2 -2.8 1.8 -7.3 3.5 -4.5 1.8 -7.7 2.9 -7.2 2.4z"/>
  <path d="M597.6 252 c0.5 -0.4 2.7 -1.1 4.9 -1.4 4.5 -0.7 3.8 -0.2 -1.9 1.3 -2.2 0.6 -3.5 0.6 -3 0.1z"/>
  <path d="M282.5 246.8 c-2.1 -2.4 -4.9 -6.8 -6.4 -9.8 -2.2 -4.7 -2.6 -6.8 -2.6 -15 0 -8.8 0.3 -10.1 3.3 -16.3 2.5 -5 4.9 -8 9.3 -11.7 3.3 -2.8 6.5 -5 7.1 -5 0.7 0 0.8 -1.4 0.4 -4 -0.4 -2.5 -0.2 -4 0.4 -4 2.1 0 21.1 10.1 20.5 11 -0.3 0.4 -2.9 0.6 -5.8 0.3 -11.5 -1.2 -23.9 4.1 -28.4 12.2 -1.7 2.9 -2.3 5.6 -2.3 10 0 7.1 2 11.8 7.9 19.3 l4.1 5.2 -4 0 c-3.3 0 -4 -0.3 -4 -2 0 -1.1 -0.3 -2 -0.8 -2 -0.4 0 -0.6 1.8 -0.4 4 0.4 3.7 0.7 4 3.3 4 2.7 0 2.9 0.3 2.9 4 0 2.2 -0.2 4 -0.4 4 -0.3 0 -2.1 -1.9 -4.1 -4.2z"/>
  <path d="M657.5 237 c-1.6 -0.7 -1.3 -0.9 1.8 -0.9 2 -0.1 3.7 0.4 3.7 0.9 0 1.2 -2.7 1.2 -5.5 0z"/>
  <path d="M988.8 228.8 c-2.6 -2 -2.8 -2 -5.3 -0.4 l-2.7 1.8 0.2 -3.4 c0.3 -5.1 0.1 -5.8 -1.6 -5.8 -1.5 0 -1.5 -0.2 0 -2.5 0.9 -1.3 1.6 -3.8 1.6 -5.5 0 -4.4 1.6 -3.7 4 1.7 1.1 2.5 3.4 6.8 5 9.5 4.3 7 3.9 8.6 -1.2 4.6z"/>
  <path d="M366 208.5 c0.8 -2.2 0.7 -3.3 -0.5 -5.1 -1.5 -2.3 -1.4 -2.4 1 -2.4 1.4 0 2.5 -0.3 2.5 -0.6 0 -1.2 -2.9 -3.4 -4.5 -3.4 -0.9 0 -1.9 -0.9 -2.2 -2 -0.3 -1.1 -1.3 -2 -2.2 -2 -1 0 -2.1 -0.3 -2.5 -0.7 -0.3 -0.4 -1.3 -0.8 -2.1 -0.9 -0.8 -0.1 -4.6 -3.1 -8.5 -6.6 -6.3 -5.7 -6.7 -6.3 -4.5 -6.6 2.3 -0.3 2.3 -0.4 0.6 -2.1 -0.9 -0.9 -3.9 -2.7 -6.5 -3.9 -3.4 -1.6 -5.2 -3.2 -5.9 -5.3 -0.7 -1.7 -1.9 -2.9 -3 -2.9 -1 0 -3.3 -1.6 -5.2 -3.5 -2.3 -2.2 -3.5 -2.9 -3.5 -1.9 0 1.2 -0.5 1.3 -2.2 0.7 -1.3 -0.4 -4 -0.7 -6 -0.6 -2.1 0 -3.8 -0.2 -3.8 -0.5 0 -0.4 2.2 -3.1 4.8 -6 l4.7 -5.2 10.5 9.6 c5.8 5.2 12.2 10.9 14.3 12.5 l3.7 3.1 0 -5.2 c0 -8.2 4.5 -15.1 11.7 -18 6.1 -2.3 11.5 0.5 25.6 13.4 10.5 9.6 12.3 10.7 15.5 9.5 3.3 -1.3 3.5 -1.2 2 0.9 -2.6 3.7 -11.9 13.4 -12.4 13 -0.2 -0.3 0 -1.7 0.5 -3 0.7 -1.9 0.6 -3.1 -0.5 -4.7 -1.4 -2 -1.4 -2.1 1.5 -2.1 2.4 0 3.1 -0.4 3.1 -2 0 -1.6 -0.7 -2 -3 -2 -2 0 -3 0.5 -3 1.5 0 0.8 -0.3 1.5 -0.6 1.5 -1 0 -15.3 -13.3 -14.9 -13.9 0.2 -0.4 -0.3 -1.5 -1.1 -2.6 -1.3 -1.7 -1.4 -1.7 -1.4 -0.1 0 1.7 -0.2 1.6 -3.2 -0.2 -5 -3 -8.4 -3.5 -12.2 -1.7 -3.1 1.5 -6.6 6.8 -6.6 10.1 0 3.8 5.5 11.6 13.5 19.2 10.3 9.8 13.8 11.9 17.1 10.3 3.8 -1.7 2.8 0.2 -3.8 7.5 -7 7.8 -8.3 8.7 -6.8 4.9z"/>
  <path d="M914.7 201.9 c-5.8 -7.1 -7.6 -9.9 -6.1 -9.9 0.4 0 1.6 0.7 2.6 1.7 1.4 1.3 2.3 1.4 4.2 0.5 2.2 -1 2.5 -0.8 2.8 1 0.2 1.2 1.2 2.6 2.3 3.2 1.1 0.6 2.2 1.2 2.4 1.3 0.2 0.2 -0.2 0.9 -0.9 1.8 -0.7 0.9 -1 2.7 -0.6 4.5 0.3 1.7 0.2 3 -0.2 3 -0.4 0 -3.4 -3.2 -6.5 -7.1z"/>
  <path d="M959.1 197.6 c-0.8 -0.9 -1 -3.2 -0.5 -6.5 l0.7 -5.1 -3.8 -1.6 c-4.4 -1.8 -9.3 -1.3 -14.2 1.6 l-3.3 1.9 0 -2.9 c0 -1.7 0.4 -3 0.9 -3 0.5 0 1.1 -0.9 1.4 -2 0.4 -1.6 1.4 -2 4.7 -2 3.7 0 4.1 0.2 3 1.5 -1.1 1.3 -0.6 1.5 3.8 1.5 9.1 0 16.2 4.6 16.2 10.5 0 5.3 -6.1 9.5 -8.9 6.1z"/>
  <path d="M891.6 174.5 c-9.6 -3.4 -15.6 -11.8 -15.6 -21.9 0 -3.4 0.3 -7.1 0.6 -8.3 0.9 -3.2 3.4 -2.9 3.5 0.5 0.2 2.3 0.2 2.4 0.6 0.5 0.3 -1.8 1.1 -2.3 3.4 -2.3 l2.9 0 -2 3.2 c-1.1 1.8 -2.5 5.6 -3.1 8.4 -1 4.4 -0.9 5.6 0.8 9.6 3.5 7.8 12 9.8 21.2 4.9 3.3 -1.8 3.5 -1.8 5.8 0.2 3.5 3.1 2.8 4.4 -2.7 5.6 -6.6 1.4 -10.6 1.3 -15.4 -0.4z"/>
  <path d="M948 173.9 c-3.2 -1.9 -3.5 -2.4 -3.6 -7 l-0.1 -5 5.3 5.2 c5 5 5.3 5.4 3.7 7.1 -0.9 1 -1.7 1.8 -1.7 1.7 -0.1 0 -1.7 -1 -3.6 -2z"/>
  <path d="M405.8 158.9 c-2.4 -1.3 -2.3 -3.6 0.2 -4.9 1.1 -0.6 2 -1.8 2 -2.6 0 -1.3 0.2 -1.3 2.2 0 5 3.5 11 1 12.9 -5.3 0.9 -3 0.9 -4.7 0 -7.2 -0.8 -2.3 -0.8 -3.5 -0.1 -3.9 0.7 -0.4 0.6 -1.1 -0.5 -2 -0.8 -0.7 -1.5 -1.9 -1.5 -2.6 0 -0.8 -0.4 -1.4 -1 -1.4 -0.5 0 -1 -0.6 -1 -1.4 0 -0.8 -0.7 -1.6 -1.5 -2 -0.8 -0.3 -1.5 0 -1.5 0.6 0 0.6 -0.9 0.3 -2 -0.7 -1.9 -1.7 -2 -1.7 -2.6 0.1 -0.3 1.1 -1.4 4.1 -2.5 6.8 -2.6 6.7 -3.3 11.9 -2 14.5 1.1 1.9 0.9 2.1 -1.4 2.1 -2 0 -2.5 0.5 -2.5 2.5 0 3.1 -2.5 3.3 -3.4 0.3 -1.5 -5.8 -0.6 -9.2 5 -18.5 4.6 -7.5 5.5 -9.8 5 -12 -0.4 -1.6 -0.8 -3.7 -1 -4.8 -0.1 -1.1 -0.9 -2 -1.7 -2.1 -0.8 0 -2.7 -0.6 -4.4 -1.3 -2.6 -1.1 -3.5 -1 -6.4 0.5 -4.4 2.4 -5.7 5.4 -4.4 9.9 1 3.2 0.9 3.5 -0.8 3.5 -1 0 -1.9 0.7 -1.9 1.5 0 0.8 0.9 1.5 2 1.5 2.6 0 2.6 2.7 -0.1 3.5 -2.5 0.8 -5.5 -1.6 -6.3 -5.1 -1.9 -7.5 11.6 -21.4 20.9 -21.4 4.5 0 6.4 1.8 15.8 14.3 7.6 10.2 13.7 16.7 15.6 16.7 0.3 0 1.7 -0.7 2.9 -1.6 4.2 -2.9 3.7 -0.4 -0.8 4.1 -4.7 4.8 -8 5.7 -11 3 -1.6 -1.4 -1.8 -1.2 -2.4 2.6 -0.5 3.3 -1.8 5.4 -5.5 9.1 -4.1 4.1 -5.4 4.8 -8.7 4.8 -2.1 0 -4.7 -0.5 -5.6 -1.1z"/>
  <path d="M461.3 156.2 c1.5 -1.5 2.7 -3.6 2.7 -4.5 0 -1 -2.5 -6.7 -5.5 -12.7 -3 -6 -5.5 -11.2 -5.5 -11.5 0 -0.3 1.3 -0.5 2.9 -0.5 2.5 0 3 0.5 3.5 3.4 0.5 2.7 1.3 3.6 3.4 4.1 1.9 0.4 3.8 2.3 6.4 6.5 3.6 5.8 3.9 6 8 6 l4.3 0.1 -2.4 2 c-1.4 1.1 -3.7 2.3 -5.3 2.6 -1.5 0.3 -2.8 0.9 -2.8 1.3 0 1.1 -8.9 6 -10.8 6 -1.2 0 -0.9 -0.7 1.1 -2.8z"/>
  <path d="M919.7 148.8 c1.2 -4.7 1.2 -5.8 -0.3 -9.6 -2.8 -7.5 -10.7 -10.2 -19.1 -6.7 -4.1 1.7 -7.3 1.9 -7.3 0.5 0 -0.5 -1.1 -1 -2.5 -1 -1.4 0 -2.5 -0.4 -2.5 -0.9 0 -1.8 3.1 -3.3 9.3 -4.4 8.4 -1.4 14.1 0.2 20.3 5.6 5.6 4.9 8.4 10.3 8.4 16.1 0 4.6 -0.9 5.6 -5.4 5.6 -2.3 0 -2.3 -0.1 -0.9 -5.2z"/>
  <path d="M852.8 142.8 c-3.1 -2.4 -7.6 -5.5 -10.2 -7 -5 -3 -6.3 -5.4 -2 -3.8 3.9 1.5 6.6 1.2 9.1 -1.2 l2.3 -2.1 0 3.6 c0 3.3 0.3 3.7 2.5 3.7 2.1 0 2.4 0.4 2 2.3 -0.4 1.5 0.1 3.2 1.4 4.9 4.2 5.3 2.2 5.1 -5.1 -0.4z"/>
  <path d="M456 124.3 c-0.8 -0.9 -1.8 -2.6 -2.2 -3.7 -0.5 -1.6 -0.6 -1.4 -0.7 1.2 -0.1 1.7 -0.4 3.2 -0.9 3.2 -0.4 0 -4.8 -7.1 -9.7 -15.7 -5 -8.7 -9.8 -16.6 -10.7 -17.5 -1.3 -1.3 -2.6 -1.6 -4.9 -1.1 -2.2 0.4 -3 0.3 -2.6 -0.4 0.8 -1.2 11.2 -7.3 12.5 -7.3 0.5 0 1.7 1.6 2.8 3.5 l1.9 3.5 3 -6.2 c2.5 -5.2 3.8 -6.7 7.5 -8.6 8.2 -4.2 18.9 -1.5 26.3 6.7 4.3 4.8 4.6 6.1 1.2 6.1 -2.1 0 -2.5 0.5 -2.5 3 0 1.7 -0.4 3 -0.8 3 -1.3 0 -8.3 -11 -7.7 -12.1 0.4 -0.5 0.1 -0.9 -0.4 -0.9 -0.6 0 -1.1 0.5 -1.1 1 0 0.6 -1.1 0.3 -2.4 -0.5 -6.9 -4.6 -14.7 -3.2 -18.7 3.2 -1.7 2.7 -2 4.3 -1.5 7.6 0.8 4.8 7.9 19.4 11.6 23.8 4.7 5.6 14.4 4.5 19.3 -2.2 2.3 -3.3 3.3 -10.7 1.9 -14.8 -0.8 -2.3 -0.7 -3.1 0.4 -3.5 0.8 -0.3 1.4 -1.4 1.4 -2.5 0 -1.9 3.5 -3.9 4.7 -2.7 1.3 1.3 1.5 11 0.2 15.4 -0.9 3.3 -2.8 6.2 -6.5 9.9 -4.5 4.5 -5.9 5.3 -11.3 6.4 -4.5 0.8 -6.1 1.6 -5.7 2.5 0.8 2 -2.6 1.7 -4.4 -0.3z"/>
  <path d="M807 113.9 c-12.7 -2.1 -26.2 -12.5 -31.6 -24.4 -1.5 -3.1 -2.4 -5.8 -2.3 -5.9 0.2 -0.2 2.5 -0.6 5.1 -0.9 l4.7 -0.6 1.2 5.7 c1.6 7.8 4 12.3 9.3 16.9 7.3 6.4 16.6 7.9 24.6 3.9 4.5 -2.2 8 0 8 5 0 1.6 -9.7 1.8 -19 0.3z"/>
  <path d="M505.1 97.5 c-2.3 -1.1 -3.1 -2 -2.7 -3 0.7 -1.9 -1.4 -5.5 -3.1 -5.5 -0.7 0 -1.7 -0.8 -2.2 -1.7 -0.6 -1 -1.1 -1.2 -1.1 -0.5 -0.1 3.6 -3.6 -0.6 -5.4 -6.5 -0.6 -2 -0.4 -2.3 1.7 -2.3 2 0 2.3 -0.4 1.9 -2.5 -0.3 -1.6 -1.1 -2.5 -2.3 -2.5 -4.9 0 0.1 -15.6 6.5 -20.4 1.7 -1.3 4.9 -3 7.2 -3.6 7.7 -2.3 19.2 2.8 23 10.1 0.8 1.6 1.3 3.3 1 3.8 -0.3 0.4 -7 3.4 -14.8 6.6 -7.9 3.2 -14.6 6.1 -15 6.4 -1.3 1.1 3.8 10.6 7.1 13.4 8.8 7.4 19.5 5.2 25.7 -5.3 3.1 -5.2 4.9 -2.7 2 2.8 -5 9.6 -19.7 14.9 -29.5 10.7z m1.2 -27.4 c8.5 -3.2 12.5 -5.5 13.3 -7.6 0.9 -2.2 -2.4 -7.9 -5.5 -9.8 -3.3 -1.9 -8.3 -2.2 -11.2 -0.7 -2.9 1.6 -5.9 8.4 -5.9 13.4 0 3.6 0.7 7.6 1.4 7.6 0 0 3.6 -1.3 7.9 -2.9z"/>
  <path d="M835.8 94.5 c-0.6 -1.4 -1.5 -2.5 -2 -2.5 -0.4 0 -0.8 -1.1 -0.8 -2.5 0 -1.4 0.2 -2.5 0.4 -2.5 0.5 0 13.6 6.3 15.4 7.3 2.4 1.6 0.2 2.5 -3.5 1.5 -2.5 -0.7 -4.3 -0.6 -6 0.1 -2.1 0.9 -2.5 0.8 -3.5 -1.4z"/>
  <path d="M826.5 90 c-0.6 -2.8 -2.5 -4.8 -7.1 -7.6 -1.1 -0.7 -1.6 -1.5 -1.1 -2 0.4 -0.4 3.5 0.5 6.8 2.1 5.7 2.8 6 3.1 5.5 5.8 -0.3 1.6 -0.6 3.3 -0.6 3.8 0 2.3 -2.9 0.5 -3.5 -2.1z"/>
  <path d="M548 87.4 c0 -0.5 1.3 -1.7 3 -2.6 1.6 -0.9 3.2 -2.8 3.6 -4.2 0.4 -1.7 1.3 -2.6 2.5 -2.6 1 0 1.9 -0.4 1.9 -1 0 -0.5 -0.4 -1 -1 -1 -0.5 0 -1 -0.9 -1 -2 0 -1.1 -0.6 -2 -1.4 -2 -0.9 0 -2.4 -4.2 -4.6 -13.7 -1.7 -7.6 -3.8 -16.2 -4.5 -19 -1.1 -4.3 -1.1 -5.3 0 -5.3 1 0 1 -1.2 -0.2 -6 -1 -3.6 -2.1 -6 -2.9 -6 -0.8 0 -1.6 -1.1 -2 -2.4 -0.8 -3.2 -4.5 -5.6 -8.4 -5.6 -3.9 0 -3.8 -1.4 0.3 -3 1.7 -0.6 5.4 -2.1 8.1 -3.1 2.7 -1.1 5.3 -1.6 5.7 -1.2 0.6 0.7 3.7 13.7 12.9 54.8 1.8 7.7 3.8 15 4.6 16.2 0.9 1.5 2.9 2.5 5.5 2.9 4.8 0.8 3.6 1.8 -3.1 2.9 -4.7 0.7 -14.8 3.1 -17.5 4.1 -0.8 0.3 -1.5 0.2 -1.5 -0.2z"/>
  <path d="M881.9 85.2 c1.1 -1.7 2.1 -3.5 2.1 -4.1 0 -0.6 0.7 -1.1 1.6 -1.1 1.2 0 1.4 0.9 1.2 3.8 -0.3 3.4 -0.6 3.7 -3.7 4 l-3.3 0.3 2.1 -2.9z"/>
  <path d="M891.6 79.9 c-1.1 -1 -2.9 -1.9 -4 -1.9 -1.5 -0.1 -2.8 -1.5 -4.4 -4.7 -1.2 -2.5 -2.1 -4.7 -2 -4.8 0.2 -0.1 4 1.6 8.5 3.8 l8.3 3.9 -1.7 2.9 c-2 3.4 -2.2 3.4 -4.7 0.8z"/>
  <path d="M686.5 78.3 c-1.1 -0.3 -5.8 -1.1 -10.5 -1.8 -7.4 -1.1 -8.1 -1.3 -5.3 -2 1.8 -0.4 3.7 -1.3 4.2 -1.9 1.7 -2 7.4 -39.3 6.2 -40 -0.3 -0.2 -2.3 -0.6 -4.3 -1 -2.3 -0.4 -3.8 -1.3 -3.8 -2.1 0 -1.7 4.1 -2.9 6.8 -2 2.3 0.7 2.6 -0.1 3.7 -7.5 1.4 -8.8 5.5 -15.3 11.7 -18.6 3.5 -1.8 13.9 -1.8 18.3 0 5.2 2.2 7.5 8.7 4 11.6 -2.2 1.9 -4.1 0.6 -6.3 -4.2 -2.3 -5.2 -4.2 -6.9 -7.9 -7 -4.4 -0.1 -7.2 1.9 -9.3 6.7 -1.4 3.3 -4 13.7 -4 16.2 0 0.2 -0.8 0.3 -1.7 0.4 -1.4 0 -1.5 0.2 -0.3 0.6 0.8 0.4 2 1.2 2.5 1.8 0.6 0.7 2.9 1.5 5.3 1.8 5 0.6 5.7 1 4.9 3.2 -0.5 1.1 -2.1 1.5 -6.1 1.5 l-5.4 0 -1.1 7.8 c-1.6 10.7 -3.1 24.2 -3.1 27.5 0 2.7 2.5 5.9 6.6 8.4 1.8 1.1 1.7 1.2 -0.6 1.1 -1.4 0 -3.4 -0.3 -4.5 -0.5z"/>
  <path d="M847.7 76.4 c-0.4 -0.4 -0.7 -3.2 -0.7 -6.3 0 -11.5 -5.3 -21.7 -13.9 -26.8 -8.4 -5 -16 -5.3 -26.2 -0.9 -1.2 0.5 -1.8 0.1 -2.2 -1.3 -0.3 -1.2 -1.2 -2.1 -2.1 -2.1 -0.9 0 -1.6 -0.7 -1.6 -1.5 0 -2 5.6 -2.8 14.8 -2.3 11.6 0.7 18.3 4.1 27.7 14 6.5 6.8 7.9 7.9 10 7.4 3.3 -0.8 3.2 0.3 -0.6 10.6 -3.4 8.9 -4.1 10.2 -5.2 9.2z"/>
  <path d="M625 73.5 c-12.2 -5.5 -18.4 -21.4 -12.9 -33.5 2.9 -6.5 9.3 -12.7 15.2 -14.6 11.9 -3.9 25.6 1.9 30.2 12.9 l1.5 3.7 -2.5 0 c-1.8 0 -2.5 -0.5 -2.5 -2 0 -1.1 -0.4 -2 -1 -2 -0.5 0 -1 0.7 -1 1.5 0 0.8 -0.7 1.5 -1.5 1.5 -0.8 0 -1.5 -0.6 -1.5 -1.3 0 -2.3 -5.2 -9.4 -8 -11.1 -6.5 -3.8 -15.3 -0.9 -18.6 6.2 -1.1 2.3 -2.7 4.3 -3.7 4.5 -2 0.6 -4.9 7 -4.5 10.1 0.2 1.5 0.9 2 2.5 1.8 1.8 -0.3 2.3 0.3 2.9 3.5 3.1 16.4 15.4 23.2 24.9 13.7 2 -2 4 -5.4 4.8 -8.2 0.9 -2.8 2.1 -4.8 3.1 -5 0.9 -0.2 1.6 0.2 1.6 0.8 0 0.6 0.9 1.4 2.1 1.8 2 0.8 1.9 0.9 -1.3 5.7 -5.2 7.8 -10.2 10.7 -19 11.2 -5.2 0.2 -8.3 -0.1 -10.8 -1.2z"/>
 </g>
 <g fill="#0a8c46">
  <path d="M631.6 568.2 c-0.2 -0.4 -0.1 -2.6 0.3 -4.9 0.9 -4.6 0.3 -5.3 -4.9 -5.3 -2.6 0 -2.9 0.4 -3.6 4.5 -0.6 4.1 -0.9 4.5 -3.5 4.5 -1.5 0 -3 -0.4 -3.3 -0.8 -0.2 -0.4 0.3 -5.8 1.1 -12 l1.6 -11.2 3.5 0 3.4 0 -0.7 4.9 -0.7 4.9 3.9 0.4 c2.1 0.3 4 0.3 4.2 0.1 0.3 -0.2 0.7 -2.2 1 -4.6 0.6 -4 0.8 -4.2 3.6 -3.9 1.7 0.2 3.1 0.5 3.3 0.7 0.3 0.3 -1.3 13.9 -2.5 20.3 -0.4 2.7 -0.9 3.2 -3.4 3.2 -1.5 0 -3 -0.3 -3.3 -0.8z"/>
  <path d="M656 564.2 c-3.4 -3.4 -4 -4.6 -4 -8.2 0 -8 5.2 -13 13.4 -13 3.9 0 5.2 0.6 8.3 3.4 3.3 2.9 3.7 3.9 3.7 8.4 0.1 4.7 -0.3 5.5 -3.6 8.8 -3 3 -4.5 3.8 -8.7 4.2 -4.9 0.4 -5.3 0.3 -9.1 -3.6z m13.4 -4.4 c2.4 -3.4 2 -7.3 -1 -9.7 -3.3 -2.6 -4.9 -2.6 -7.4 -0.1 -2.4 2.4 -2.6 7.7 -0.3 10.2 2.3 2.5 6.8 2.3 8.7 -0.4z"/>
  <path d="M599.5 561.9 c-3.2 -2.9 -3.5 -3.6 -3.5 -8.6 0 -5.1 0.3 -5.8 3.9 -9.4 4.3 -4.4 8.8 -5.1 14.1 -2.4 3.3 1.7 3.5 2.2 2 6 l-1 2.5 -2 -2 c-1.1 -1.1 -3.1 -2 -4.4 -2 -2.9 0 -6.6 4.2 -6.6 7.6 0 3.1 4.5 6.6 7.6 5.8 2.5 -0.7 2.7 -0.3 1.8 3.4 -1 3.5 -7.3 3.1 -11.9 -0.9z"/>
  <path d="M679.6 552.7 c-1.9 -6.2 -3.2 -11.5 -2.8 -11.8 1.1 -1 10.4 -3.9 12.4 -3.9 1.3 0 1.8 0.7 1.8 2.5 0 2 -0.6 2.7 -3 3.2 -3.5 0.6 -4.2 1.5 -3.4 3.6 0.4 1.2 1.2 1.3 4 0.4 2.9 -0.9 3.7 -0.8 4.5 0.4 1.5 2.5 1 3.6 -2.3 4.6 -2.9 0.8 -3.3 1.3 -3 3.9 0.8 6.6 0.7 6.7 -2 7.5 -2.7 0.7 -2.8 0.7 -6.2 -10.4z"/>
  <path d="M584 557 c-1.4 -1.4 -2 -3.4 -2 -6.2 l-0.1 -4.3 -2 3.8 c-2.2 4.2 -1.9 4 -5.3 2.7 l-2.5 -0.9 4.9 -10.8 c2.7 -5.9 5.3 -10.9 5.7 -11 0.4 -0.1 3.5 1.2 6.8 3 5.3 2.8 6 3.6 6.3 6.5 0.4 4.4 -2.1 8.2 -5.4 8.2 -2.5 0 -2.5 0.1 -1.9 5.5 0.6 4.7 0.5 5.5 -0.9 5.5 -0.9 0 -2.5 -0.9 -3.6 -2z m5 -14.9 c0.7 -1.5 0.6 -2.3 -0.6 -3.5 -2 -2.1 -2.1 -2.1 -3.9 1.3 -1.1 2.3 -1.2 3.1 -0.2 3.4 2.4 1 3.6 0.7 4.7 -1.2z"/>
  <path d="M706.5 546.7 c-6.3 -6.3 -5.1 -15.7 2.4 -20.1 3.2 -1.8 10.3 -2.7 11.6 -1.4 1.1 1 -2.6 5.9 -4.4 5.7 -6.8 -0.6 -9.6 6.1 -4.6 11.5 3.5 3.8 8.7 3 10.4 -1.7 1.2 -3.2 0.3 -3.9 -2.6 -2 -2.4 1.6 -2.6 1.6 -3.9 -0.2 -1.7 -2.3 -0.9 -3.2 5 -6.5 5.6 -3 6.7 -2.2 7.4 5 0.4 4.9 0.3 5.2 -3.7 9 -3.7 3.6 -4.7 4 -9.2 4 -4.4 0 -5.5 -0.4 -8.4 -3.3z"/>
  <path d="M561.3 545.8 c-4.3 -1.1 -9.3 -6.3 -9.3 -9.6 0 -2.7 8.7 -18.2 10.3 -18.2 1.7 0 4.7 2.1 4.7 3.3 0 0.7 -1.8 3.9 -4 7.2 -4.2 6.3 -4.8 8.3 -2.8 10.3 2.6 2.6 4.8 1.2 9.4 -5.8 2.5 -3.8 5.1 -7 5.8 -7 0.7 0 2 0.8 2.9 1.8 1.5 1.7 1.3 2.3 -3.3 9.2 -5.5 8.3 -8.5 10.2 -13.7 8.8z"/>
  <path d="M541.5 531 c-1.8 -2 -1.8 -2.1 1.3 -5.3 l3.2 -3.3 -2.8 -2.7 c-1.5 -1.5 -3.2 -2.7 -3.7 -2.7 -0.5 0 -2.1 1.5 -3.6 3.3 l-2.8 3.2 -2.5 -2.5 -2.5 -2.5 8.5 -8.7 c8.2 -8.3 8.6 -8.6 10.5 -7 2.5 2.2 2.4 3.4 -0.6 6.2 -3.2 3 -3.1 3.7 0.2 6.6 l2.8 2.4 3.2 -3.2 c3.2 -3.1 3.3 -3.1 5.3 -1.3 1.1 1 2 2.3 2 2.9 0 1.1 -15 16.6 -16.1 16.6 -0.3 0 -1.4 -0.9 -2.4 -2z"/>
  <path d="M729.3 529.8 c-7.8 -8.3 -2.1 -21.8 9.2 -21.8 11.6 0 16.8 13.8 8.1 21.7 -3.1 2.9 -4.3 3.3 -8.9 3.3 -4.7 0 -5.7 -0.4 -8.4 -3.2z m14.1 -5 c2.2 -3.2 2 -5.5 -0.9 -8.3 -4.3 -4.4 -10.5 -2.2 -10.5 3.7 0 6 8.1 9.3 11.4 4.6z"/>
  <path d="M750.5 510.8 c-11.9 -10.1 -11.4 -8.9 -7.1 -14.1 5 -6.1 9.7 -8.3 14.7 -6.8 8.7 2.6 11.3 11.1 5.9 19.3 -5.6 8.4 -5.5 8.4 -13.5 1.6z m9.3 -5.3 c1.7 -3.6 1.5 -4.5 -1 -7.2 -2.6 -2.8 -6.9 -3 -9.2 -0.4 -1.6 1.7 -1.4 2 3.1 5.9 2.6 2.3 5.1 4.1 5.4 4.2 0.3 0 1.1 -1.1 1.7 -2.5z"/>
  <path d="M521.1 509.5 c-9.2 -10.6 4.4 -26 16.5 -18.6 1.7 1 3.7 3.3 4.4 5.1 1.3 3.1 1.2 3.4 -1 5.2 l-2.3 1.9 -1.3 -3.1 c-1.8 -4.3 -5.5 -5.8 -8.9 -3.6 -3.7 2.4 -5 6.3 -3 9.2 0.8 1.3 2.2 2.4 3 2.4 2 0 1.9 1.3 -0.3 3.3 -2.6 2.4 -3.6 2.1 -7.1 -1.8z"/>
  <path d="M768.3 476.9 c-3.2 -1.2 -2.9 -3.4 0.8 -6.1 l3.1 -2.3 -4.4 -0.5 c-3.8 -0.4 -4.3 -0.8 -4.6 -3.2 -0.4 -3.7 3.1 -4.7 6.9 -1.9 3.8 2.8 4.2 2.7 2.4 -0.8 -1.6 -3.2 -1.2 -5.6 1.1 -6.5 2.3 -0.9 5.7 1.3 5.1 3.2 -0.3 1 -0.9 2.8 -1.3 4.1 l-0.7 2.5 3.3 -2.4 c3.8 -2.7 6.5 -1.8 6.5 2.1 0 2.1 -0.6 2.5 -4.3 2.9 l-4.4 0.5 3.2 1.8 c4.2 2.5 3.9 6.2 -0.5 6.2 -2.5 0 -3.2 -0.5 -4.1 -3.3 -1 -3.2 -2.4 -3.4 -2.4 -0.2 0 2.8 -3.2 4.9 -5.7 3.9z"/>
  <path d="M503.3 475.4 c-2.4 -1 -1.4 -4.5 1.7 -6.2 3.9 -2.2 3.8 -3.4 -0.3 -2.7 -3.7 0.7 -6.1 -1.1 -5.5 -4.2 0.5 -2.6 3.7 -2.8 7 -0.3 l3 2.2 -0.8 -2.3 c-1.7 -5.4 0.2 -9 4 -7.6 1.9 0.7 2.2 5.7 0.4 7.5 -2.2 2.2 0.2 2.5 2.6 0.3 2.8 -2.6 6.9 -2.5 7.4 0.2 0.6 3 -1.8 4.9 -5.5 4.5 -4.1 -0.5 -4.2 0.2 -0.2 2.6 3.2 1.9 3.5 4.2 0.7 6 -2.5 1.5 -5.2 -0.3 -5.6 -3.8 -0.4 -3.6 -1.7 -3.3 -2.8 0.7 -0.9 3.1 -3.2 4.3 -6.1 3.1z"/>
  <path d="M490.7 437.3 c-0.3 -0.5 -0.7 -4.4 -0.8 -8.8 -0.4 -8 -0.4 -8 2.2 -8.3 2.2 -0.3 2.7 0.2 3.2 2.5 l0.5 2.8 8.4 -0.6 c4.6 -0.3 8.6 -0.4 9.1 -0.2 0.4 0.2 0.7 1.7 0.7 3.3 l0 2.8 -9 0.8 -9 0.7 0 2.8 c0 2.4 -0.4 2.9 -2.4 2.9 -1.4 0 -2.7 -0.3 -2.9 -0.7z"/>
  <path d="M780 437.1 l-7.5 -0.6 0 -3.4 c0 -3.3 0.5 -3.8 8 -8.3 l8 -4.8 -4.6 0 c-2.6 0 -6.1 -0.3 -7.8 -0.6 -2.6 -0.6 -3.1 -1.1 -3.1 -3.7 l0 -3 6.8 0.6 c3.7 0.4 9.1 0.7 12 0.7 l5.3 0 -0.3 3.8 c-0.3 3.5 -0.8 4 -8.2 8.5 l-7.9 4.7 5.4 0 c8.2 0 9.9 0.7 9.9 4.1 0 3.3 0.3 3.2 -16 2z"/>
  <path d="M495.5 414.1 c-5.9 -0.6 -6 -0.7 -6 -3.6 0 -2.9 0.2 -3 4.8 -3.3 l4.7 -0.3 0 -3.8 c0 -3.8 -0.1 -3.9 -4.5 -4.5 -3.3 -0.5 -4.5 -1.2 -4.5 -2.4 0.1 -4.2 1.2 -4.5 13.1 -3.6 l11.4 0.9 0 3 c0 2.9 -0.2 3 -5 3.5 -4.9 0.5 -5 0.6 -5.3 4.1 -0.3 3.6 -0.2 3.6 3.9 4.3 5.5 0.9 5.7 1.1 5.1 4.1 -0.4 2.3 -0.8 2.5 -6.1 2.3 -3.1 -0.1 -8.3 -0.4 -11.6 -0.7z"/>
  <path d="M773 406 c0 -1.8 0.7 -3.4 1.8 -4.1 2.7 -1.7 1.8 -8.7 -1.4 -9.9 -2.2 -0.9 -4.3 -5.4 -3.1 -6.6 0.4 -0.5 23.2 3.4 24.4 4.1 0.1 0 0.5 1.9 0.9 4.2 l0.6 4.2 -11.1 5.5 c-6.1 3.1 -11.3 5.6 -11.6 5.6 -0.3 0 -0.5 -1.3 -0.5 -3z m15.3 -10.2 c2.2 -1.2 2.1 -1.2 -0.8 -1.9 -6.3 -1.4 -7.2 -1.2 -6.7 2 0.4 2.7 0.6 2.9 2.9 2 1.3 -0.5 3.4 -1.4 4.6 -2.1z"/>
  <path d="M502.8 385.2 c-4.8 -1.5 -9 -3 -9.4 -3.4 -0.4 -0.4 0.1 -3.7 1.1 -7.3 1.5 -5.7 2 -6.6 3.9 -6.3 1.8 0.3 2.1 1 2.1 4.8 0 5.4 2.4 6.3 3.7 1.3 0.9 -3.3 2.2 -4 4.6 -2.4 1.1 0.6 1.1 1.7 0.4 4.4 -0.9 3.1 -0.8 3.6 0.9 4 1.5 0.4 2.1 -0.3 2.9 -3.4 1.1 -3.9 2.3 -4.6 4.9 -3 1.2 0.8 1.2 1.9 -0.3 7.5 -2.1 7.8 -2 7.7 -14.8 3.8z"/>
  <path d="M767.7 378.3 c-0.3 -1.6 -0.2 -3.1 0.1 -3.5 1.2 -1.2 21.1 -7 22.1 -6.4 0.5 0.3 1.1 1.7 1.3 3.1 0.5 2.4 0 2.6 -10.3 6 -6 1.9 -11.3 3.5 -11.8 3.5 -0.5 0 -1.1 -1.2 -1.4 -2.7z"/>
  <path d="M762.2 363.5 c-1.3 -2.8 -1.6 -2.5 8.1 -7.2 5.9 -2.8 6.7 -3.6 6.2 -5.3 -0.7 -2.3 1 -5 3.1 -5 0.7 0 2.9 3.3 4.8 7.3 l3.4 7.2 -2.1 1.8 c-2 1.7 -2.2 1.8 -3.4 0.1 -0.7 -0.9 -1.4 -2.1 -1.6 -2.7 -0.1 -0.5 -3.5 0.7 -7.5 2.7 -8.5 4.3 -9.5 4.4 -11 1.1z"/>
  <path d="M513.8 354.9 c-5.4 -2.7 -9.8 -5.4 -9.8 -6 0 -2 6 -11.7 7.6 -12.3 5 -1.9 10.4 0.9 10.4 5.4 0 3.1 0.1 3.2 8.8 1.4 2.5 -0.5 2.7 0.4 1 4.1 -1 2.2 -1.7 2.5 -6 2.5 -2.6 0 -4.8 0.4 -4.8 0.8 0 0.5 1.6 1.6 3.6 2.5 3.4 1.7 3.5 1.9 2.2 3.9 -0.8 1.2 -1.9 2.3 -2.4 2.4 -0.5 0.2 -5.3 -1.9 -10.6 -4.7z m3.7 -7.9 c0.3 -1.1 0.3 -2.4 0 -3 -0.9 -1.5 -4.1 -1.2 -5.4 0.4 -1 1.1 -0.7 1.7 1.1 3 2.9 2.1 3.5 2 4.3 -0.4z"/>
  <path d="M754.7 350 c-2.7 -2.2 -5 -8.1 -4 -10.6 0.3 -0.8 1.6 -1.4 2.9 -1.4 1.8 0 2.4 0.6 2.4 2.1 0 2.8 1.8 5.9 3.5 5.9 2.2 0 2.7 -1.8 1.5 -5.5 -0.6 -1.9 -0.9 -4.4 -0.5 -5.5 0.9 -2.7 5.9 -5.2 9 -4.4 3.1 0.8 6.5 5.3 6.5 8.8 0 2.1 -0.5 2.6 -2.5 2.6 -1.7 0 -2.5 -0.5 -2.5 -1.8 0 -1.9 -1.8 -4.2 -3.3 -4.2 -0.5 0 -0.6 2.6 -0.2 5.9 0.6 5.5 0.5 5.9 -2.1 8 -3.4 2.7 -7.4 2.7 -10.7 0.1z"/>
  <path d="M527 334.9 c-11.3 -9.1 -10.8 -8.2 -7.4 -12.5 6.9 -8.7 6 -8.1 8.3 -6 l2 1.8 -2.5 3.3 c-2 2.7 -2.2 3.4 -1.1 4.4 1.1 0.8 1.9 0.5 3.7 -1.4 2.6 -2.8 4 -3.1 5.8 -1.3 0.9 0.9 0.6 1.9 -1.4 4.5 -2.2 2.9 -2.3 3.4 -0.9 3.9 1 0.4 2.7 -0.4 4.5 -2.1 2.5 -2.3 3.2 -2.6 4.5 -1.5 0.8 0.7 1.5 1.6 1.5 2 0 1 -8 11 -8.8 11 -0.4 -0.1 -4.1 -2.8 -8.2 -6.1z"/>
  <path d="M744.6 333.8 c-0.9 -1.2 -1.6 -2.5 -1.6 -2.8 0 -0.3 4.1 -3.9 9.1 -8 l9.1 -7.4 1.9 2.5 c1 1.3 1.8 2.7 1.6 3 -0.3 0.8 -17.4 14.9 -18.1 14.9 -0.3 0 -1.2 -1 -2 -2.2z"/>
  <path d="M738 325.5 c-2.1 -2.3 -2.2 -2.9 -1.3 -7 0.6 -2.5 0.9 -4.5 0.6 -4.5 -0.2 0 -1.6 1.4 -3.1 3.1 l-2.7 3 -2.2 -2.3 -2.3 -2.4 8.1 -8.7 8.1 -8.7 4.3 3.5 c5.7 4.7 7.2 8.3 5.1 12.3 -1.6 3.2 -3.4 4.2 -7.1 4.2 -2.4 0 -3.5 1.7 -3.5 5.3 0 4.2 -1.4 4.9 -4 2.2z m8.4 -14.7 c0.7 -1.2 0.6 -2.1 -0.4 -3.2 -1.2 -1.5 -1.4 -1.5 -3.1 0 -2.2 2 -2.5 4 -0.6 4.7 1.7 0.8 2.9 0.3 4.1 -1.5z"/>
  <path d="M538.7 317.5 c-4.3 -4.7 -7.5 -9 -7.2 -9.5 0.4 -0.6 2.9 -2.9 5.7 -5 5.5 -4.4 9.7 -5.1 14.7 -2.6 4 2.1 6.1 5.9 6.1 11.1 0 4 -0.5 5 -4.8 9.5 -2.7 2.8 -5.3 5 -5.8 5 -0.5 0 -4.4 -3.8 -8.7 -8.5z m13.3 -5.7 c0 -2.4 -4.3 -6.8 -6.7 -6.8 -2 0.1 -5.3 2.3 -5.3 3.6 0 0.4 1.9 2.8 4.3 5.2 l4.2 4.3 1.8 -2.2 c0.9 -1.2 1.7 -3 1.7 -4.1z"/>
  <path d="M720.7 310.2 c-1.5 -0.9 -2.7 -1.9 -2.7 -2.2 0 -0.4 1.1 -2.2 2.5 -4.1 l2.6 -3.4 -2.8 -2.2 c-3.7 -3 -4.4 -2.9 -7.1 1.2 -2.5 4 -3.2 4.2 -6.1 1.8 l-2.1 -1.8 5.6 -8.5 c7.6 -11.7 7.9 -12 10.5 -9.3 l2.2 2.1 -2.3 3.7 c-1.2 2 -2.1 3.7 -1.9 3.9 2.4 1.8 5.6 3.6 6.4 3.6 0.5 0 2 -1.6 3.3 -3.5 2.2 -3.4 2.3 -3.5 4.7 -1.9 1.4 0.9 2.5 2 2.5 2.4 0 0.5 -2.8 5.1 -6.3 10.3 l-6.2 9.6 -2.8 -1.7z"/>
  <path d="M560 299 c-3.4 -5.6 -6.1 -10.2 -5.9 -10.4 0.2 -0.2 3 -2 6.3 -4 5.5 -3.5 5.9 -3.6 7.2 -1.9 1.9 2.5 1.8 3 -1.6 5 -3 1.7 -3.8 3.7 -2 4.8 0.5 0.3 2.1 -0.2 3.5 -1.1 5 -3.2 7.6 0.8 2.9 4.5 -1.7 1.3 -2.4 2.6 -2 3.7 0.5 1.4 1 1.3 4.2 -0.6 3.4 -2.2 3.6 -2.2 4.9 -0.4 0.8 1.1 1.5 2.2 1.5 2.6 0 0.6 -11.2 7.8 -12.3 7.8 -0.3 0 -3.3 -4.5 -6.7 -10z"/>
  <path d="M578.3 288.7 c-2.4 -5.6 -4.3 -10.6 -4.3 -11 0 -0.9 10.4 -5.7 12.4 -5.7 1.5 0 2.9 2.7 2.1 4 -0.2 0.4 -1.8 1.3 -3.5 2 -2.8 1.2 -3.8 2.9 -2.4 4.3 0.4 0.3 2.2 0 4 -0.8 3.1 -1.3 3.5 -1.2 4.4 0.5 1.4 2.6 1.3 2.8 -2 4.5 -1.6 0.9 -3 2.2 -3 3 0 1.8 0.7 1.8 5 0.4 3.3 -1.2 4.9 -0.3 5 2.7 0 1 -10.9 6.4 -12.8 6.4 -0.4 0 -2.6 -4.6 -4.9 -10.3z"/>
  <path d="M693.5 295.2 c-4.3 -2.7 -5.9 -6.2 -5.2 -11.9 0.4 -3.8 1.2 -5.4 4.1 -8 4.5 -4.2 11 -4.6 15.1 -1 2.3 1.9 2.5 2.6 1.6 5 l-1.1 2.8 -3 -2.3 c-3.9 -2.8 -7.8 -1.7 -9.6 2.8 -1.9 4.6 0 7.8 4.9 8.2 3.9 0.3 4.4 1.1 2.7 4.3 -1.4 2.4 -5.5 2.5 -9.5 0.1z"/>
  <path d="M598.6 288.8 c-0.3 -1.3 -0.7 -6.6 -1 -11.9 -0.6 -9.4 -0.6 -9.7 1.6 -10.3 4 -1 4.5 -0.7 7.9 5.7 l3.3 6.2 1.1 -7.5 c1 -7.4 1.1 -7.5 4.1 -7.8 3 -0.3 3.1 -0.2 7.3 10.4 4.4 11.1 4.3 12.8 -0.3 12.2 -1.4 -0.2 -2.5 -2 -4 -6.3 l-2 -6 -0.9 7.2 c-0.6 4.8 -1.4 7.3 -2.4 7.7 -2.2 0.9 -3 0 -5.8 -5.5 -1.4 -2.7 -2.8 -4.9 -3.1 -4.9 -0.3 0 -0.4 2.8 -0.3 6.3 0.4 6.1 0.4 6.2 -2.3 6.5 -2.2 0.3 -2.8 -0.1 -3.2 -2z"/>
  <path d="M653.3 285.3 c-1.8 -0.2 -3.3 -0.8 -3.3 -1.3 0 -1.1 1.9 -15.6 2.6 -19.9 l0.5 -3.4 5.6 0.7 c9.8 1.1 14.3 4.9 14.3 12.1 0 4.8 -3 10.2 -6.6 11.5 -2.5 1 -6.8 1.1 -13.1 0.3z m11.7 -7.2 c1.8 -3.4 1.2 -7.8 -1.2 -9.5 -4.4 -3.1 -5 -2.4 -6.2 7.2 l-0.6 4.2 3.5 0 c2.4 0 3.7 -0.6 4.5 -1.9z"/>
  <path d="M631.2 272.9 l0.3 -12.1 7 0 c6.8 0 7 0 7.3 2.6 0.3 2.5 0.1 2.6 -4.2 2.6 -3.9 0 -4.6 0.3 -4.6 2 0 1.7 0.7 2 4 2 3.6 0 4 0.3 4 2.4 0 2.1 -0.5 2.5 -3.7 2.8 -2.6 0.2 -3.9 0.8 -4.1 2 -0.3 1.3 0.6 1.7 4 2 3.9 0.3 4.3 0.6 4.6 3.1 l0.3 2.7 -7.6 0 -7.6 0 0.3 -12.1z"/>
 </g>
 <g fill="#d2271f">
  <path d="M751.4 768.6 c-1 -0.8 -1.6 -1.7 -1.2 -2.1 0.4 -0.4 -0.4 -1.9 -1.8 -3.3 -1.3 -1.5 -2.4 -3 -2.4 -3.5 0 -0.4 -0.4 -0.6 -0.9 -0.2 -0.5 0.3 -1.3 0 -1.8 -0.7 -1.1 -1.8 -2 -17.8 -0.9 -17.8 0.4 0 0.6 -0.9 0.3 -2 -0.3 -1.1 0 -2 0.6 -2 0.6 0 0.7 -0.3 0.4 -0.7 -0.4 -0.3 0.2 -1.3 1.4 -2.1 1.1 -0.8 1.8 -2 1.5 -2.7 -0.4 -1.1 0.1 -1.1 2.5 -0.3 2.9 1 3 1.2 2.2 4.7 -1.4 6.2 -0.9 18.3 0.9 21.9 0.9 1.7 1.3 3.2 0.8 3.2 -1 0 -0.6 4.3 0.5 7.3 0.9 2.1 0.5 2.1 -2.1 0.3z"/>
  <path d="M413.7 768.3 c-0.3 -0.5 -0.3 -2.1 0 -3.8 1.4 -8.2 1.5 -11.5 0.3 -11.5 -0.6 0 -0.9 -0.4 -0.6 -0.8 0.2 -0.4 0.7 -6.9 1 -14.5 0.3 -7.5 0.9 -13.7 1.3 -13.8 0.5 0 1.2 1.7 1.7 3.8 0.5 2.1 1.2 4 1.6 4.3 1 0.8 2 6.8 1.4 8.5 -0.4 0.8 -1.2 1.5 -2 1.5 -1.1 0 -1.4 1.6 -1.4 6.8 0 7.9 0.8 11.2 2.5 11.2 0.7 0 1.5 1.4 1.9 3.1 0.4 2.4 0.2 3.5 -1.1 4.5 -2 1.5 -5.9 1.8 -6.6 0.7z"/>
  <path d="M706.3 760.3 c-0.7 -0.3 -1.3 -1.1 -1.3 -1.8 0 -0.8 -1 -2.3 -2.2 -3.5 l-2.2 -2 2.6 0 c3.3 0 6.1 3.1 5.1 5.7 -0.5 1.1 -1.4 1.8 -2 1.6z"/>
  <path d="M902.7 758.3 c-1.1 -1 -0.8 -6.3 0.3 -6.3 0.6 0 1 0.7 1 1.5 0 0.8 0.7 1.5 1.5 1.5 2 0 1.9 2.6 -0.1 3.4 -1.9 0.7 -1.9 0.7 -2.7 -0.1z"/>
  <path d="M445.6 754.3 c-0.3 -0.3 -0.3 -1 0 -1.4 0.7 -1.2 4.4 -1.2 4.4 0 0 1 -3.6 2.1 -4.4 1.4z"/>
  <path d="M627.6 754.1 c-0.3 -0.4 -0.2 -1.2 0.2 -1.8 0.5 -0.8 1.2 -0.8 2.5 0.2 1.6 1.2 1.6 1.3 -0.3 1.8 -1.1 0.3 -2.2 0.2 -2.4 -0.2z"/>
  <path d="M694.8 753.8 c-1.1 -2.6 0.2 -5.8 2.4 -5.8 1 0 1.7 0.4 1.3 0.9 -0.3 0.5 -0.1 1.2 0.5 1.6 1.7 1.1 1.1 2.3 -0.9 1.8 -1.3 -0.3 -2 0.1 -2.3 1.4 -0.3 1.6 -0.4 1.6 -1 0.1z"/>
  <path d="M478.6 752.5 c0.4 -0.8 1.6 -1.5 2.8 -1.5 2.1 0.1 2.1 0.1 0.2 1.5 -2.5 1.9 -3.7 1.9 -3 0z"/>
  <path d="M939.7 745.4 c-1.5 -1.5 -0.6 -3.4 1.6 -3.4 1.2 0 1.7 0.3 1.1 0.8 -0.6 0.4 -1.3 1.3 -1.5 2 -0.3 0.7 -0.8 1 -1.2 0.6z"/>
  <path d="M625.7 583 c-2 -0.4 -4.1 -1 -4.5 -1.5 -0.4 -0.4 0.3 -0.4 1.5 -0.1 1.2 0.4 9.4 0.7 18.2 0.7 9.3 0.1 15.9 0.5 15.5 1 -0.6 1.1 -25.2 1 -30.7 -0.1z"/>
  <path d="M634 529 c0 -0.6 4.7 -1 12.3 -0.9 9.5 0.1 11.2 0.3 7.7 1 -6.6 1.1 -20 1.1 -20 -0.1z"/>
  <path d="M312 261.1 c0 -1.7 -4.2 -2.4 -5.2 -1 -0.6 1 -1.1 1 -1.4 0.3 -0.3 -0.6 -1.5 -0.9 -2.7 -0.7 -3.7 0.7 -18.7 -9.2 -18.7 -12.4 0 -0.7 -0.5 -1.3 -1.1 -1.3 -1.9 0 -4.8 -4.4 -5.5 -8.2 -0.4 -2.1 -1 -3.8 -1.5 -3.8 -0.5 0 -0.9 -2 -0.9 -4.5 0 -4.3 1.1 -5.8 2.5 -3.4 0.4 0.6 1.3 0.8 2 0.5 0.7 -0.2 1.6 0.1 1.9 0.9 0.3 1 0 1.2 -1.1 0.8 -2.8 -1.1 -0.5 1.6 2.8 3.3 1.9 1 2.9 2.1 2.5 3 -0.3 0.8 0 1.4 0.6 1.4 0.6 0 3.4 1.8 6.2 3.9 10.1 7.8 22.4 11.9 32.2 10.6 3 -0.3 5.5 -0.5 5.7 -0.3 0.2 0.2 1 -0.2 1.8 -0.9 1.6 -1.3 4.5 -0.1 3.5 1.5 -0.3 0.5 0.4 1.2 1.6 1.5 l2.2 0.6 -2.5 1.9 c-5.3 4.2 -15.5 7.9 -16.1 6 -0.5 -1.4 -6.1 -1.3 -6.6 0.1 -0.4 1.3 -2.2 1.5 -2.2 0.2z"/>
  <path d="M951.3 255.4 c-1 -0.9 -0.4 -2.2 2.6 -5.6 2.1 -2.3 8.4 -9.9 14 -16.8 5.6 -6.9 10.8 -13.3 11.6 -14.2 0.8 -1 1.9 -1.8 2.5 -1.8 1 0 4 5.2 4 6.9 0 1.7 -24.5 29.5 -27.1 30.8 -3.9 1.8 -6.4 2.1 -7.6 0.7z"/>
  <path d="M919.1 252.3 c-0.1 -0.7 -0.9 -1.3 -2 -1.3 -2.8 0 -4.4 -2.5 -3.6 -5.9 0.8 -3.5 3.3 -6.1 4.3 -4.3 0.4 0.6 2 1.5 3.5 2.1 3.2 1.2 3.5 3.3 0.8 5.8 -1 1 -2.1 2.5 -2.4 3.3 -0.3 0.9 -0.6 1 -0.6 0.3z"/>
  <path d="M631.5 246 c0.3 -0.5 1.5 -1 2.6 -1 1 0 1.9 0.5 1.9 1 0 0.6 -1.2 1 -2.6 1 -1.4 0 -2.3 -0.4 -1.9 -1z"/>
  <path d="M641 246 c0 -0.6 2.8 -1 6.4 -1 3.6 0 6.8 0.5 7.1 1 0.4 0.6 -2 1 -6.4 1 -4.1 0 -7.1 -0.4 -7.1 -1z"/>
  <path d="M664.5 238.1 c-3.5 -0.4 -5.5 -0.9 -4.8 -1.4 1.5 -0.9 11.1 0.2 11.9 1.4 0.3 0.5 0.2 0.8 -0.3 0.7 -0.4 -0.1 -3.5 -0.4 -6.8 -0.7z"/>
  <path d="M620.5 237 c0.3 -0.5 3.8 -1 7.7 -1 8.9 0 8.5 0.5 -1 1.4 -4.9 0.4 -7.1 0.3 -6.7 -0.4z"/>
  <path d="M369 205.2 c-1.7 -0.5 -17.3 -16.5 -19.6 -20 -0.8 -1.2 -1.8 -2 -2.3 -1.8 -0.4 0.3 -5.7 -3.8 -11.7 -9 -6 -5.3 -12.5 -10.8 -14.4 -12.2 -1.9 -1.4 -4.5 -3.8 -5.7 -5.2 -1.9 -2.2 -2.2 -2.3 -2.8 -0.7 -0.4 0.9 -1.1 1.7 -1.6 1.7 -1.6 0 -1 -2.5 1.1 -4.3 1.1 -0.9 2 -2.3 2 -3.1 0 -0.7 0.8 -2 1.7 -2.7 1 -0.8 1.4 -0.9 1 -0.2 -0.5 0.7 0.6 1.8 2.8 2.9 2.6 1.2 3.3 1.9 2.3 2.5 -1 0.7 -0.9 0.9 0.5 0.9 0.9 0 1.6 0.3 1.5 0.8 -0.5 1.4 3.7 5.2 6.9 6.3 1.8 0.6 3.1 1.5 2.8 2 -0.4 0.5 -0.1 0.9 0.4 0.9 0.6 0 1 0.5 0.9 1.2 -0.2 0.6 1.7 2.2 4.2 3.6 2.5 1.3 5.3 3 6.2 3.9 0.9 0.8 2.1 1.2 2.6 0.9 0.6 -0.3 1.2 0.1 1.5 0.8 0.3 0.8 0.1 1.7 -0.6 1.9 -1.7 0.5 10.9 12.7 14.4 13.9 1.6 0.5 2.7 1.4 2.4 1.9 -0.3 0.4 1.5 1.7 4 2.9 2.5 1.1 4.5 2.3 4.5 2.6 0 0.3 -0.6 0.2 -1.2 -0.1 -0.7 -0.4 -0.5 0 0.5 0.8 1.4 1.2 1.6 2 0.8 3.5 -1.4 2.7 -3.4 4 -5.1 3.4z"/>
  <path d="M920 203 c0 -0.5 -0.7 -1 -1.5 -1 -3.6 0 -5.4 -7.1 -2.1 -8.3 2.3 -0.9 26.3 -20.5 27.9 -22.8 0.9 -1.2 1.3 -2.7 1 -3.3 -0.4 -0.6 0.4 -0.3 1.7 0.7 1.4 0.9 3.5 2.2 4.8 2.7 3 1.3 2.8 2 -1.3 6 -1.9 1.8 -3.2 3.7 -2.8 4.3 0.3 0.5 -0.3 0.6 -1.6 0.2 -1.7 -0.5 -2.4 -0.2 -2.7 1.2 -0.3 1 -4.4 4.7 -9.1 8.3 -4.6 3.6 -9.8 8 -11.4 9.8 -1.6 1.8 -2.9 2.8 -2.9 2.2z"/>
  <path d="M959.7 195 c-1.1 -1.8 -1.4 -3 -0.7 -3 0.7 0 0.9 -1.2 0.4 -3.5 -0.5 -2.8 -0.3 -3.5 1 -3.5 2.3 0 4.9 4.5 4.2 7.4 -0.4 1.5 -0.1 2.6 0.6 2.8 0.6 0.2 0.8 1 0.4 1.6 -1.3 2.1 -4.1 1.3 -5.9 -1.8z"/>
  <path d="M299 192.4 c0 -0.7 -0.8 -1.4 -1.9 -1.7 -1.3 -0.3 -2 -1.6 -2.3 -4.3 -0.3 -2.2 -0.5 -4 -0.4 -4.1 0.4 -0.6 5.5 1.1 5 1.8 -0.3 0.5 0.2 1.2 1 1.5 0.9 0.3 1.6 1.4 1.6 2.3 0 1.9 -2.9 6.3 -3 4.5z"/>
  <path d="M391 180.2 c-2.6 -0.8 -8.9 -7.4 -8.3 -8.8 0.5 -1.2 -3.8 -4.6 -6.3 -5 -0.8 -0.1 -2 -0.8 -2.7 -1.6 -0.7 -0.7 -3 -2.4 -5 -3.8 -2 -1.4 -3.7 -3 -3.7 -3.6 0 -0.7 -0.6 -1.2 -1.2 -1.1 -0.7 0 -2.4 -0.1 -3.8 -0.2 -1.9 -0.1 -2.2 -0.3 -1.1 -1 1.3 -0.8 1.3 -1.2 0 -2.7 -1.2 -1.4 -1.2 -1.8 0 -2.2 1.1 -0.4 1.1 -0.6 0 -1.4 -1.9 -1.3 4.9 0.1 7.6 1.6 1.1 0.6 2.4 1.7 2.8 2.4 0.4 0.6 1.8 1.2 3 1.3 1.3 0 1.6 0.3 0.9 0.6 -1.8 0.7 6.5 9.3 9 9.3 1 0 1.7 0.5 1.6 1.2 -0.2 0.6 2.1 2.5 5.1 4.1 7.2 3.8 8.5 5.2 7.2 7.5 -1.4 2.7 -3.4 4 -5.1 3.4z"/>
  <path d="M906 171.7 c-1.4 -1.2 -2.4 -2.1 -2.2 -2 1 0.5 10.7 -9.6 13 -13.7 3.6 -6.1 4.6 -7 7.2 -6.3 2 0.5 2.2 1.1 1.8 5.4 -0.6 5.8 -4.5 11.9 -10.2 16.1 -4.7 3.4 -6.3 3.5 -9.6 0.5z"/>
  <path d="M402.7 156.2 c-2 -2.1 -2.7 -3.8 -2.7 -6.9 0 -4.1 1.3 -6.3 2.5 -4.3 0.3 0.5 1.4 1 2.3 1 0.9 0.1 2.9 2 4.4 4.3 l2.8 4.2 -2.8 2.2 c-1.5 1.3 -3 2.3 -3.3 2.3 -0.3 0 -1.7 -1.3 -3.2 -2.8z"/>
  <path d="M465.8 153.3 c-0.9 -1 -1.9 -3.4 -2.2 -5.3 -1 -5.2 -3.7 -11 -5.1 -11 -1.2 0 -2.9 -3.5 -2.6 -5.3 0.1 -0.4 -0.8 -1.6 -1.9 -2.7 -2.2 -2.2 -5.4 -8.9 -5.1 -10.6 0.1 -0.7 -0.6 -1.4 -1.4 -1.8 -0.9 -0.3 -1.4 -1 -1.1 -1.5 0.6 -0.9 -3 -9.1 -4 -9.1 -0.4 0 -0.3 0.8 0 1.8 0.5 1.4 0.4 1.4 -0.9 -0.2 -0.8 -1.1 -1.5 -3 -1.5 -4.4 0 -1.3 -0.4 -2.1 -0.9 -1.8 -0.5 0.4 -1.2 -0.8 -1.6 -2.5 -0.4 -1.7 -1 -2.8 -1.3 -2.5 -0.3 0.4 -1.6 -1.5 -2.8 -4.1 -1.8 -3.9 -2 -5.1 -1 -6.1 2.1 -2.1 6.7 -0.4 8 2.9 0.6 1.6 1.7 2.9 2.6 3 1 0 1.1 0.2 0.3 0.6 -1.8 0.7 -1.6 3.3 0.2 3.3 2.1 0 4.1 4 2.5 5 -1.7 1 0.6 5.3 2.5 4.6 1.4 -0.5 2.8 2.4 2.9 6.3 0.1 1.6 1.1 3 3.1 4.1 1.7 1 2.9 2.3 2.7 2.9 -0.1 0.6 0.5 1.4 1.3 1.7 0.8 0.4 1.5 1.3 1.5 2.1 0 0.8 1.8 5 4.1 9.4 2.2 4.3 3.8 8.3 3.4 8.9 -0.3 0.5 0.1 1 1 1 1.1 0 1.5 0.5 1.2 1.4 -0.3 0.8 0.2 1.6 1.5 1.9 1.2 0.3 1.7 1 1.3 1.7 -0.4 0.7 0.2 1.4 1.4 1.7 3 0.8 2.6 1.8 -1.5 4.2 -4.3 2.5 -4.7 2.6 -6.6 0.4z"/>
  <path d="M882.1 151.1 c-0.1 -0.9 -0.9 -1.1 -2.5 -0.7 -2 0.5 -2.5 0.2 -2.8 -1.6 -0.5 -3.2 0.8 -7.5 3.3 -11.2 2.1 -3.1 9.3 -9.1 10.9 -9.1 0.5 0 1.1 -0.3 1.5 -0.7 1.1 -1 3.5 0.2 3.5 1.8 0 0.8 0.9 1.4 2 1.4 3.1 0 2.4 1.2 -2.5 4.5 -5.2 3.4 -10.5 9.5 -12.2 14 -0.6 1.6 -1.2 2.4 -1.2 1.6z"/>
  <path d="M427 142 c0 -0.6 -0.4 -0.8 -1 -0.5 -0.5 0.3 -1 -0.3 -1 -1.4 0 -1 -0.4 -2.1 -0.9 -2.3 -0.9 -0.3 -11.1 -13.5 -11.1 -14.4 0 -0.4 -1.8 -2.4 -7.1 -8 -1.9 -2 -2.7 -3.6 -2.3 -4.7 1.1 -3.1 4.5 -1.8 9.2 3.3 2.5 2.8 5.2 5 6 5 0.9 0 1.2 0.6 0.8 1.5 -0.4 1.1 0.3 1.9 2.1 2.6 2.2 0.8 2.4 1.2 1.3 1.9 -1.2 0.8 -1.2 1 0.4 1 1.2 0 1.6 0.5 1.3 1.4 -0.7 1.9 6.4 9.3 9.3 9.8 2.2 0.3 2.2 0.3 0.4 2.4 -2.1 2.4 -7.4 4.1 -7.4 2.4z"/>
  <path d="M848.5 139.2 c-1.4 -1.5 -0.2 -6.5 2.3 -9.4 1.6 -1.8 8.9 -12.1 16.2 -22.8 7.3 -10.7 14.2 -20.5 15.2 -21.6 1.2 -1.3 2.1 -4.4 2.5 -7.8 0.6 -5.4 1.4 -6.8 2.9 -4.5 0.3 0.6 1.5 0.9 2.5 0.6 1.1 -0.3 1.7 -0.2 1.4 0.2 -0.2 0.5 0.7 1.4 2.1 2.2 1.6 0.8 2.4 1.9 2.1 3 -0.3 1 -5.4 8.8 -11.3 17.3 -10.3 14.8 -25.7 37.4 -27.9 41 -1 1.6 -6.9 2.9 -8 1.8z"/>
  <path d="M388.3 132.9 c-1.4 -0.5 -2.3 -1.7 -2.4 -3.1 0 -1.3 -0.2 -3.5 -0.3 -4.9 -0.2 -2.7 0.7 -3.1 3.2 -1.5 0.7 0.4 1.6 0.5 1.9 0.2 1 -1 3.4 5.5 2.8 7.5 -0.7 2.2 -2.5 2.8 -5.2 1.8z"/>
  <path d="M820.9 112.2 l-2.5 -2.7 2.3 -3.3 c2.9 -4.3 6.3 -13.5 6.3 -17 0 -4.9 1.1 -5.2 6.5 -2.3 2.8 1.5 5.2 3.3 5.4 4.1 0.2 0.8 0.6 2.3 0.8 3.3 0.3 0.9 0 1.7 -0.6 1.7 -0.6 0 -2.5 2.8 -4.2 6.3 -4.1 8.1 -7.6 12.7 -9.7 12.7 -0.9 -0.1 -2.8 -1.3 -4.3 -2.8z"/>
  <path d="M478.3 99.8 c-1.5 -1.8 -6.3 -12.6 -6.3 -14.1 0 -0.8 -0.4 -0.7 -1 0.3 -0.6 0.9 -1 1 -1 0.3 0 -0.7 -1.5 -2.3 -3.2 -3.5 -2.2 -1.5 -3.4 -3.2 -3.5 -5 -0.1 -1.6 0.2 -2.8 0.7 -2.8 2.4 0 6.4 2.3 10.4 6.1 2.5 2.2 4.9 3.8 5.4 3.5 0.9 -0.6 2.8 2.8 4.2 7.6 0.7 2.1 0.5 2.6 -0.6 2.1 -0.9 -0.3 -1.4 0.2 -1.4 1.4 0 1.1 -0.6 2.7 -1.3 3.7 -1.1 1.5 -1.5 1.5 -2.4 0.4z"/>
  <path d="M497.9 92.1 c-3.3 -3.2 -4.9 -5.7 -4.9 -7.3 0 -1.4 -0.7 -3.2 -1.6 -3.9 -1.2 -1 -1.5 -2.6 -1.2 -7.1 0.5 -6.4 2.4 -9.9 3.4 -6.1 0.3 1.2 1.5 2.4 2.6 2.6 1.4 0.4 1.9 1.1 1.5 2.1 -0.4 0.9 -0.3 1.6 0.2 1.6 1.6 0 2.3 5.2 0.9 6.1 -1 0.7 -0.9 0.9 0.4 0.9 2.3 0 3.4 2 1.7 3.1 -1.1 0.7 -0.9 1 0.7 1.5 1.2 0.3 2.7 1.7 3.4 3 0.8 1.3 2.3 2.4 3.4 2.5 1.2 0 1.6 0.3 0.9 0.5 -0.7 0.3 -0.9 1.2 -0.6 2 0.3 0.8 -0.1 1.4 -1.1 1.4 -0.9 0 -1.6 0.5 -1.6 1 0 2.4 -3.6 0.6 -8.1 -3.9z"/>
  <path d="M777.4 89.3 c-0.9 -1.6 -2.5 -3.3 -3.3 -4 -1.3 -0.9 -1.6 -3.2 -1.6 -11 0 -8.6 0.3 -10.5 2.8 -15.8 5.2 -11.1 19.5 -22.6 28.2 -22.5 2.6 0.1 8.5 3.5 7.4 4.3 -0.2 0.2 -2.1 1.1 -4.1 2.2 -13.4 6.9 -24.8 26.1 -23.6 40 0.2 3.1 0 4.1 -0.9 3.8 -0.7 -0.3 -1.3 0.2 -1.3 1 0 0.8 0.9 1.7 2 2 1.1 0.3 2 1.1 1.9 1.9 0 1 -0.2 1 -0.6 0.1 -0.6 -1.5 -3.3 -1.7 -3.3 -0.3 0 1.9 -1.8 1 -3.6 -1.7z"/>
  <path d="M557.9 82.4 c-1.3 -0.7 -2.6 -1.1 -2.9 -0.9 -0.3 0.1 -0.6 -3.3 -0.8 -7.6 -0.1 -4.4 -1.4 -12.6 -2.7 -18.2 -1.4 -5.6 -2.5 -11.3 -2.5 -12.7 0 -1.4 -0.7 -3.6 -1.6 -4.9 -1.3 -1.8 -4.7 -12.8 -5.8 -18.8 -0.1 -0.7 -1 -2.1 -2 -3.2 -2.3 -2.5 -1.7 -6.2 1.3 -7.7 2.3 -1.2 3.5 -0.9 7.1 1.4 0.2 0.2 -0.1 0.7 -0.9 1.1 -1.8 1.2 -0.4 8.1 1.8 8.2 1 0 1.1 0.2 0.4 0.6 -1.8 0.7 -1.6 2.3 0.2 2.3 0.8 0 1.5 0.5 1.5 1 0 0.6 -0.4 1 -1 1 -0.5 0 -1 0.5 -1 1 0 0.6 0.6 1 1.4 1 2.1 0 2.8 2.8 0.8 3.3 -1.5 0.4 -1.5 0.5 -0.1 0.6 2.1 0.1 3.4 3.1 1.4 3.1 -1.8 0 -1.9 1.3 -0.3 7.9 0.8 3.5 1.7 5.1 2.7 5.1 1.4 0.1 1.4 0.2 -0.1 1 -1.4 0.9 -1.5 1.6 -0.6 4 0.5 1.7 1.6 3 2.4 3 0.8 0 1.4 0.5 1.4 1 0 0.6 -0.4 1 -1 1 -0.5 0 -1 0.5 -1 1 0 0.6 0.7 1 1.5 1 0.8 0 1.5 0.5 1.5 1 0 0.6 -0.4 1 -1 1 -0.5 0 -1 0.5 -1 1 0 0.6 0.7 1 1.5 1 0.8 0 1.5 0.5 1.5 1 0 0.6 -0.4 1 -1 1 -0.5 0 -1 0.5 -1 1 0 0.6 0.7 1 1.5 1 2 0 3.2 5 1.4 6.1 -1.1 0.7 -1.1 0.9 0.2 0.9 1.9 0 3.4 4 1.6 4 -0.7 0.1 -0.1 0.7 1.3 1.5 1.4 0.8 1.9 1.4 1.3 1.5 -0.7 0 -2.1 0.8 -3.2 1.9 -1.6 1.6 -2.2 1.6 -4.2 0.5z"/>
  <path d="M678.5 74.7 c-2.1 -2.3 -2.6 -5.7 -1.2 -6.8 0.5 -0.3 0.9 -3.2 1 -6.3 0.1 -3 0.6 -5.6 1.1 -5.6 0.4 0 0.6 -1.6 0.4 -3.5 -0.2 -1.9 0 -3.5 0.4 -3.5 0.4 0 0.6 -1.5 0.4 -3.2 -0.2 -1.8 0.2 -4.2 0.9 -5.3 1.4 -2.1 0.9 -8.5 -0.6 -8.5 -1.5 0 -1 -2 1.2 -5.1 1.2 -1.7 1.9 -3.9 1.6 -4.9 -0.3 -1.1 -0.1 -2 0.5 -2 0.6 0 0.8 -0.8 0.6 -1.8 -0.3 -1.2 0.2 -2.4 1.3 -3.1 1.6 -0.9 1.9 -0.8 1.9 0.8 0 1.1 0.4 2.1 0.9 2.3 1.1 0.4 1.8 10.4 0.8 11.4 -0.4 0.4 -0.7 1.6 -0.7 2.6 0 1 -0.7 1.8 -1.7 1.8 -1.5 0 -1.6 0.2 -0.3 1 1.3 0.8 1.2 1 -0.2 1 -1.1 0 -1.8 0.8 -1.8 2 0 1.1 0.7 2 1.5 2 2.3 0 1.9 4.1 -0.5 4.7 -2.2 0.6 -2.8 4.8 -0.7 5.6 0.6 0.3 0.3 0.6 -0.8 0.7 -1.7 0.2 -1.6 0.3 0.5 1 2.4 0.8 2.4 0.8 0.3 0.9 -1.8 0.1 -2.3 0.7 -2.3 2.6 0 1.5 0.6 2.5 1.4 2.5 0.8 0 1.4 1 1.4 2.4 0 1.8 -0.5 2.2 -1.9 1.9 -1.6 -0.5 -1.9 0.1 -1.9 3.6 0 3 0.4 4.1 1.5 4.1 2 0 1.8 2 -0.4 4.8 -2.3 2.6 -2.1 2.6 -4.6 -0.1z"/>
  <path d="M520.8 64.2 c-0.1 -1.5 -0.2 -3.6 -0.3 -4.7 -0.3 -3.9 0.5 -4.3 4.3 -2.4 3.6 1.9 5.9 4.5 4.8 5.6 -0.3 0.4 -0.6 0.1 -0.6 -0.5 0 -0.7 -0.7 -1.2 -1.6 -1.2 -1.1 0 -1.5 0.6 -1.1 1.9 0.4 1.5 -0.2 2.2 -2.4 3 -2.7 0.9 -2.9 0.8 -3.1 -1.7z"/>
  <path d="M615.3 61.8 c-3.1 -3.4 -5.7 -13.2 -4.5 -16.8 0.6 -1.5 0.9 -3 0.6 -3.2 -0.2 -0.2 0.9 -1.9 2.4 -3.6 2.1 -2.5 3.2 -3.1 5 -2.6 1.8 0.5 2.2 1.2 1.7 2.8 -0.3 1.1 -0.8 5.4 -1.2 9.4 -0.3 3.9 -1 7.2 -1.4 7.2 -0.5 0 -0.9 0.5 -0.9 1 0 0.6 0.6 1 1.4 1 1.9 0 2.7 3.7 0.9 4.4 -0.8 0.3 -1.1 1 -0.8 1.6 1.2 1.9 -1.2 1 -3.2 -1.2z"/>
  <path d="M848.1 63.1 c-2 -1.3 -0.9 -4.6 1.8 -4.9 2 -0.3 2.2 -0.1 1.6 2 -1 3.2 -1.8 3.9 -3.4 2.9z"/>
  <path d="M655 62.3 c0 -0.7 -0.7 -1.3 -1.5 -1.3 -2.3 0 -3.2 -2.8 -2.7 -8 0.4 -4.6 -1.2 -14.3 -2.8 -16.5 -0.4 -0.5 -0.4 -2.1 -0.1 -3.3 0.6 -2.4 0.6 -2.4 3.1 -0.5 1.4 1.1 3.2 2.2 4.1 2.5 2.4 0.9 5.3 11.2 4.5 16.4 -0.5 4.2 -4.5 13.3 -4.6 10.7z"/>
  <path d="M715.3 10.8 c-2.6 -0.7 -3.3 -1.4 -3.3 -3.4 0 -2.4 0.3 -2.5 3.3 -1.9 4 0.9 3.9 0.8 3.5 3.7 -0.3 2.2 -0.6 2.4 -3.5 1.6z"/>
 </g>
</svg>